<?xml version="1.0" encoding="UTF-8"?><svg xmlns="http://www.w3.org/2000/svg" xmlns:xlink="http://www.w3.org/1999/xlink" contentScriptType="text/ecmascript" width="200" zoomAndPan="magnify" contentStyleType="text/css" viewBox="0 0 375 374.999991" height="200" preserveAspectRatio="xMidYMid meet" version="1.0"><defs><clipPath id="clip-0"><path d="M 112.5 232 L 187.5 232 L 187.5 244 L 112.5 244 Z M 112.5 232 " clip-rule="nonzero"/></clipPath><clipPath id="clip-1"><path d="M 112.5 235 L 187.5 235 L 187.5 257.25 L 112.5 257.25 Z M 112.5 235 " clip-rule="nonzero"/></clipPath><clipPath id="clip-2"><path d="M 112.5 211 L 187.5 211 L 187.5 223 L 112.5 223 Z M 112.5 211 " clip-rule="nonzero"/></clipPath><clipPath id="clip-3"><path d="M 112.5 193 L 187.5 193 L 187.5 216 L 112.5 216 Z M 112.5 193 " clip-rule="nonzero"/></clipPath><clipPath id="clip-4"><path d="M 112.5 214 L 187.5 214 L 187.5 237 L 112.5 237 Z M 112.5 214 " clip-rule="nonzero"/></clipPath><clipPath id="clip-5"><path d="M 112.5 187.5 L 187.5 187.5 L 187.5 202 L 112.5 202 Z M 112.5 187.5 " clip-rule="nonzero"/></clipPath><clipPath id="clip-6"><path d="M 199.089844 197 L 274.089844 197 L 274.089844 209 L 199.089844 209 Z M 199.089844 197 " clip-rule="nonzero"/></clipPath><clipPath id="clip-7"><path d="M 199.089844 200 L 274.089844 200 L 274.089844 222.375 L 199.089844 222.375 Z M 199.089844 200 " clip-rule="nonzero"/></clipPath><clipPath id="clip-8"><path d="M 199.089844 176 L 274.089844 176 L 274.089844 188 L 199.089844 188 Z M 199.089844 176 " clip-rule="nonzero"/></clipPath><clipPath id="clip-9"><path d="M 199.089844 159 L 274.089844 159 L 274.089844 182 L 199.089844 182 Z M 199.089844 159 " clip-rule="nonzero"/></clipPath><clipPath id="clip-10"><path d="M 199.089844 179 L 274.089844 179 L 274.089844 202 L 199.089844 202 Z M 199.089844 179 " clip-rule="nonzero"/></clipPath><clipPath id="clip-11"><path d="M 199.089844 152.625 L 274.089844 152.625 L 274.089844 167 L 199.089844 167 Z M 199.089844 152.625 " clip-rule="nonzero"/></clipPath><clipPath id="clip-12"><path d="M 147.429688 128.765625 L 152.679688 128.765625 L 152.679688 191.765625 L 147.429688 191.765625 Z M 147.429688 128.765625 " clip-rule="nonzero"/></clipPath><clipPath id="clip-13"><path d="M 231.917969 125.933594 L 236.417969 125.933594 L 236.417969 158.183594 L 231.917969 158.183594 Z M 231.917969 125.933594 " clip-rule="nonzero"/></clipPath><clipPath id="clip-14"><path d="M 147.664062 121.59375 L 236.914062 121.59375 L 236.914062 128.34375 L 147.664062 128.34375 Z M 147.664062 121.59375 " clip-rule="nonzero"/></clipPath></defs><path fill="rgb(89.019775%, 53.729248%, 90.19928%)" d="M 187.5 84.375 C 130.546875 84.375 84.375 130.546875 84.375 187.5 C 84.375 244.453125 130.546875 290.625 187.5 290.625 C 244.453125 290.625 290.625 244.453125 290.625 187.5 C 290.625 130.546875 244.453125 84.375 187.5 84.375 Z M 187.5 84.375 " fill-opacity="1" fill-rule="nonzero"/><g clip-path="url(#clip-0)"><path fill="rgb(36.859131%, 9.01947%, 92.158508%)" d="M 115.949219 232.0625 C 113.765625 233.046875 112.542969 234.136719 112.542969 235.292969 C 112.542969 239.570312 129.3125 243.042969 150 243.042969 C 170.6875 243.042969 187.457031 239.570312 187.457031 235.292969 C 187.457031 234.136719 186.234375 233.046875 184.050781 232.0625 C 178.128906 234.730469 165.113281 236.582031 150 236.582031 C 134.886719 236.582031 121.871094 234.730469 115.949219 232.0625 Z M 115.949219 232.0625 " fill-opacity="1" fill-rule="nonzero"/></g><g clip-path="url(#clip-1)"><path fill="rgb(59.21936%, 1.959229%, 76.469421%)" d="M 150 243.042969 C 129.3125 243.042969 112.542969 239.570312 112.542969 235.292969 L 112.542969 249.5 C 112.542969 253.78125 129.3125 257.25 150 257.25 C 170.6875 257.25 187.457031 253.78125 187.457031 249.5 L 187.457031 235.292969 C 187.457031 239.570312 170.6875 243.042969 150 243.042969 Z M 150 243.042969 " fill-opacity="1" fill-rule="nonzero"/></g><g clip-path="url(#clip-2)"><path fill="rgb(36.859131%, 9.01947%, 92.158508%)" d="M 115.949219 211.394531 C 113.765625 212.378906 112.542969 213.472656 112.542969 214.625 C 112.542969 218.90625 129.3125 222.375 150 222.375 C 170.6875 222.375 187.457031 218.90625 187.457031 214.625 C 187.457031 213.472656 186.234375 212.378906 184.050781 211.394531 C 178.128906 214.0625 165.113281 215.917969 150 215.917969 C 134.886719 215.917969 121.871094 214.0625 115.949219 211.394531 Z M 115.949219 211.394531 " fill-opacity="1" fill-rule="nonzero"/></g><g clip-path="url(#clip-3)"><path fill="rgb(59.21936%, 1.959229%, 76.469421%)" d="M 150 201.707031 C 129.3125 201.707031 112.542969 198.238281 112.542969 193.957031 L 112.542969 208.167969 C 112.542969 209.320312 113.765625 210.414062 115.949219 211.394531 C 121.871094 214.0625 134.886719 215.917969 150 215.917969 C 165.113281 215.917969 178.128906 214.0625 184.050781 211.394531 C 186.234375 210.414062 187.457031 209.320312 187.457031 208.167969 L 187.457031 193.957031 C 187.457031 198.238281 170.6875 201.707031 150 201.707031 Z M 150 201.707031 " fill-opacity="1" fill-rule="nonzero"/></g><g clip-path="url(#clip-4)"><path fill="rgb(59.21936%, 1.959229%, 76.469421%)" d="M 150 222.375 C 129.3125 222.375 112.542969 218.90625 112.542969 214.625 L 112.542969 228.832031 C 112.542969 229.988281 113.765625 231.078125 115.949219 232.0625 C 121.871094 234.730469 134.886719 236.582031 150 236.582031 C 165.113281 236.582031 178.128906 234.730469 184.050781 232.0625 C 186.234375 231.078125 187.457031 229.988281 187.457031 228.832031 L 187.457031 214.625 C 187.457031 218.90625 170.6875 222.375 150 222.375 Z M 150 222.375 " fill-opacity="1" fill-rule="nonzero"/></g><g clip-path="url(#clip-5)"><path fill="rgb(62.348938%, 10.978699%, 77.648926%)" d="M 150 187.5 C 129.3125 187.5 112.542969 189.679688 112.542969 193.957031 C 112.542969 198.238281 129.3125 201.707031 150 201.707031 C 170.6875 201.707031 187.457031 198.238281 187.457031 193.957031 C 187.457031 189.679688 170.6875 187.5 150 187.5 Z M 150 187.5 " fill-opacity="1" fill-rule="nonzero"/></g><path fill="rgb(39.99939%, 39.99939%, 39.99939%)" d="M 153.875 209.457031 L 146.125 209.457031 C 145.410156 209.457031 144.832031 208.878906 144.832031 208.167969 C 144.832031 207.453125 145.410156 206.875 146.125 206.875 L 153.875 206.875 C 154.589844 206.875 155.167969 207.453125 155.167969 208.167969 C 155.167969 208.878906 154.589844 209.457031 153.875 209.457031 Z M 153.875 209.457031 " fill-opacity="1" fill-rule="nonzero"/><path fill="rgb(39.99939%, 39.99939%, 39.99939%)" d="M 153.875 230.125 L 146.125 230.125 C 145.410156 230.125 144.832031 229.546875 144.832031 228.832031 C 144.832031 228.121094 145.410156 227.542969 146.125 227.542969 L 153.875 227.542969 C 154.589844 227.542969 155.167969 228.121094 155.167969 228.832031 C 155.167969 229.546875 154.589844 230.125 153.875 230.125 Z M 153.875 230.125 " fill-opacity="1" fill-rule="nonzero"/><path fill="rgb(39.99939%, 39.99939%, 39.99939%)" d="M 153.875 250.792969 L 146.125 250.792969 C 145.410156 250.792969 144.832031 250.214844 144.832031 249.5 C 144.832031 248.785156 145.410156 248.207031 146.125 248.207031 L 153.875 248.207031 C 154.589844 248.207031 155.167969 248.785156 155.167969 249.5 C 155.167969 250.214844 154.589844 250.792969 153.875 250.792969 Z M 153.875 250.792969 " fill-opacity="1" fill-rule="nonzero"/><g clip-path="url(#clip-6)"><path fill="rgb(5.099487%, 57.249451%, 58.81958%)" d="M 202.539062 197.1875 C 200.355469 198.171875 199.128906 199.261719 199.128906 200.417969 C 199.128906 204.695312 215.902344 208.167969 236.589844 208.167969 C 257.277344 208.167969 274.046875 204.695312 274.046875 200.417969 C 274.046875 199.261719 272.824219 198.171875 270.640625 197.1875 C 264.71875 199.855469 251.703125 201.707031 236.589844 201.707031 C 221.472656 201.707031 208.460938 199.855469 202.539062 197.1875 Z M 202.539062 197.1875 " fill-opacity="1" fill-rule="nonzero"/></g><g clip-path="url(#clip-7)"><path fill="rgb(0%, 96.859741%, 100%)" d="M 236.589844 208.167969 C 215.902344 208.167969 199.128906 204.695312 199.128906 200.417969 L 199.128906 214.625 C 199.128906 218.90625 215.902344 222.375 236.589844 222.375 C 257.277344 222.375 274.046875 218.90625 274.046875 214.625 L 274.046875 200.417969 C 274.046875 204.695312 257.277344 208.167969 236.589844 208.167969 Z M 236.589844 208.167969 " fill-opacity="1" fill-rule="nonzero"/></g><g clip-path="url(#clip-8)"><path fill="rgb(5.099487%, 57.249451%, 58.81958%)" d="M 202.539062 176.519531 C 200.355469 177.503906 199.128906 178.597656 199.128906 179.75 C 199.128906 184.03125 215.902344 187.5 236.589844 187.5 C 257.277344 187.5 274.046875 184.03125 274.046875 179.75 C 274.046875 178.597656 272.824219 177.503906 270.640625 176.519531 C 264.71875 179.1875 251.703125 181.042969 236.589844 181.042969 C 221.472656 181.042969 208.460938 179.1875 202.539062 176.519531 Z M 202.539062 176.519531 " fill-opacity="1" fill-rule="nonzero"/></g><g clip-path="url(#clip-9)"><path fill="rgb(0%, 96.859741%, 100%)" d="M 236.589844 166.832031 C 215.902344 166.832031 199.128906 163.363281 199.128906 159.082031 L 199.128906 173.292969 C 199.128906 174.445312 200.355469 175.539062 202.539062 176.519531 C 208.460938 179.1875 221.472656 181.042969 236.589844 181.042969 C 251.703125 181.042969 264.71875 179.1875 270.640625 176.519531 C 272.820312 175.539062 274.046875 174.445312 274.046875 173.292969 L 274.046875 159.082031 C 274.046875 163.363281 257.277344 166.832031 236.589844 166.832031 Z M 236.589844 166.832031 " fill-opacity="1" fill-rule="nonzero"/></g><g clip-path="url(#clip-10)"><path fill="rgb(0%, 96.859741%, 100%)" d="M 236.589844 187.5 C 215.902344 187.5 199.128906 184.03125 199.128906 179.75 L 199.128906 193.957031 C 199.128906 195.113281 200.355469 196.203125 202.539062 197.1875 C 208.460938 199.855469 221.472656 201.707031 236.589844 201.707031 C 251.703125 201.707031 264.71875 199.855469 270.640625 197.1875 C 272.820312 196.203125 274.046875 195.113281 274.046875 193.957031 L 274.046875 179.75 C 274.046875 184.03125 257.277344 187.5 236.589844 187.5 Z M 236.589844 187.5 " fill-opacity="1" fill-rule="nonzero"/></g><g clip-path="url(#clip-11)"><path fill="rgb(61.959839%, 96.078491%, 97.24884%)" d="M 236.589844 152.625 C 215.902344 152.625 199.128906 154.804688 199.128906 159.082031 C 199.128906 163.363281 215.902344 166.832031 236.589844 166.832031 C 257.277344 166.832031 274.046875 163.363281 274.046875 159.082031 C 274.046875 154.804688 257.277344 152.625 236.589844 152.625 Z M 236.589844 152.625 " fill-opacity="1" fill-rule="nonzero"/></g><path fill="rgb(39.99939%, 39.99939%, 39.99939%)" d="M 240.464844 174.582031 L 232.714844 174.582031 C 232 174.582031 231.421875 174.003906 231.421875 173.292969 C 231.421875 172.578125 232 172 232.714844 172 L 240.464844 172 C 241.175781 172 241.753906 172.578125 241.753906 173.292969 C 241.753906 174.003906 241.175781 174.582031 240.464844 174.582031 Z M 240.464844 174.582031 " fill-opacity="1" fill-rule="nonzero"/><path fill="rgb(39.99939%, 39.99939%, 39.99939%)" d="M 240.464844 195.25 L 232.714844 195.25 C 232 195.25 231.421875 194.671875 231.421875 193.957031 C 231.421875 193.246094 232 192.667969 232.714844 192.667969 L 240.464844 192.667969 C 241.175781 192.667969 241.753906 193.246094 241.753906 193.957031 C 241.753906 194.671875 241.175781 195.25 240.464844 195.25 Z M 240.464844 195.25 " fill-opacity="1" fill-rule="nonzero"/><path fill="rgb(39.99939%, 39.99939%, 39.99939%)" d="M 240.464844 215.917969 L 232.714844 215.917969 C 232 215.917969 231.421875 215.339844 231.421875 214.625 C 231.421875 213.910156 232 213.332031 232.714844 213.332031 L 240.464844 213.332031 C 241.175781 213.332031 241.753906 213.910156 241.753906 214.625 C 241.753906 215.339844 241.175781 215.917969 240.464844 215.917969 Z M 240.464844 215.917969 " fill-opacity="1" fill-rule="nonzero"/><g clip-path="url(#clip-12)"><path fill="rgb(99.609375%, 76.078796%, 5.099487%)" d="M 147.445312 191.765625 L 147.445312 128.765625 L 152.664062 128.765625 L 152.664062 191.765625 Z M 147.445312 191.765625 " fill-opacity="1" fill-rule="nonzero"/></g><g clip-path="url(#clip-13)"><path fill="rgb(99.609375%, 76.078796%, 5.099487%)" d="M 231.929688 158.183594 L 231.929688 98.183594 L 236.40625 98.183594 L 236.40625 158.183594 Z M 231.929688 158.183594 " fill-opacity="1" fill-rule="nonzero"/></g><g clip-path="url(#clip-14)"><path fill="rgb(99.609375%, 76.078796%, 5.099487%)" d="M 147.664062 121.617188 L 236.914062 121.617188 L 236.914062 128.316406 L 147.664062 128.316406 Z M 147.664062 121.617188 " fill-opacity="1" fill-rule="nonzero"/></g></svg>