<?xml version="1.0" encoding="UTF-8"?><svg xmlns="http://www.w3.org/2000/svg" xmlns:xlink="http://www.w3.org/1999/xlink" contentScriptType="text/ecmascript" width="280" zoomAndPan="magnify" contentStyleType="text/css" viewBox="0 0 375 374.999991" height="280" preserveAspectRatio="xMidYMid meet" version="1.0"><defs><clipPath id="clip-0"><path d="M 112.5 120 L 260.46875 120 L 260.46875 256.90625 L 112.5 256.90625 Z M 112.5 120 " clip-rule="nonzero"/></clipPath><clipPath id="clip-1"><path d="M 124.882812 120 L 259.199219 120 L 259.199219 256.90625 L 124.882812 256.90625 Z M 124.882812 120 " clip-rule="nonzero"/></clipPath><clipPath id="clip-2"><path d="M 112.5 118.21875 L 257 118.21875 L 257 253 L 112.5 253 Z M 112.5 118.21875 " clip-rule="nonzero"/></clipPath><clipPath id="clip-3"><path d="M 123.296875 120.1875 L 260.46875 120.1875 L 260.46875 256.90625 L 123.296875 256.90625 Z M 123.296875 120.1875 " clip-rule="nonzero"/></clipPath><clipPath id="clip-4"><path d="M 140.125 154.84375 L 262.496094 154.84375 L 262.496094 252.773438 L 140.125 252.773438 Z M 140.125 154.84375 " clip-rule="nonzero"/></clipPath></defs><g clip-path="url(#clip-0)"><path fill="rgb(89.019775%, 53.729248%, 90.19928%)" d="M 243.289062 227.023438 L 237.785156 218.734375 L 235.660156 218.734375 C 233.503906 221.613281 231.230469 224.386719 228.859375 227.023438 Z M 134.832031 133.792969 C 134.832031 133.917969 134.84375 134.046875 134.859375 134.167969 C 136.226562 133.238281 137.644531 132.355469 139.101562 131.523438 C 138.664062 131.226562 138.136719 131.050781 137.570312 131.050781 C 136.058594 131.050781 134.832031 132.28125 134.832031 133.792969 Z M 260.402344 231.976562 L 254.019531 231.976562 L 256.910156 256.90625 L 252.273438 256.90625 L 249.382812 231.976562 L 233.035156 231.976562 L 230.144531 256.90625 L 225.507812 256.90625 L 228.398438 231.976562 L 224.121094 231.976562 C 211.757812 244.101562 197.285156 252.273438 183.097656 252.273438 C 176.757812 252.273438 170.476562 251.035156 164.425781 248.808594 L 165.367188 256.90625 L 160.726562 256.90625 L 159.554688 246.777344 C 153.011719 243.730469 146.816406 239.546875 141.195312 234.542969 L 138.601562 256.90625 L 133.964844 256.90625 L 136.855469 231.976562 L 130.824219 231.976562 L 130.824219 227.023438 L 133.710938 227.023438 C 120.875 212.480469 112.5 193.585938 112.5 175.660156 C 112.5 158.945312 119.78125 145.996094 131.175781 136.886719 C 130.980469 136.476562 130.820312 136.054688 130.707031 135.617188 L 128.621094 135.15625 L 128.621094 132.429688 L 130.707031 131.96875 C 130.867188 131.355469 131.109375 130.769531 131.425781 130.222656 L 130.277344 128.421875 L 132.207031 126.492188 L 134.003906 127.644531 C 134.550781 127.324219 135.136719 127.082031 135.746094 126.921875 L 136.207031 124.832031 L 138.933594 124.832031 L 139.390625 126.921875 C 140.003906 127.082031 140.585938 127.324219 141.132812 127.644531 L 142.933594 126.492188 L 144.859375 128.421875 L 144.71875 128.640625 C 145.753906 128.167969 146.808594 127.714844 147.875 127.28125 L 147.875 124.832031 L 154.835938 124.832031 C 160.4375 123.136719 166.347656 121.976562 172.40625 121.347656 C 172.398438 121.296875 172.390625 121.246094 172.390625 121.191406 C 172.390625 120.558594 172.90625 120.042969 173.539062 120.042969 C 174.152344 120.042969 174.652344 120.53125 174.679688 121.136719 C 177.464844 120.914062 180.273438 120.800781 183.097656 120.800781 C 219.351562 120.800781 257.484375 126.285156 257.484375 162.59375 C 257.484375 179.347656 249.363281 199.742188 237.050781 216.84375 L 246.671875 216.84375 L 253.429688 227.023438 L 260.402344 227.023438 Z M 129.410156 122.339844 C 130.042969 122.339844 130.558594 121.828125 130.558594 121.191406 C 130.558594 120.558594 130.042969 120.042969 129.410156 120.042969 C 128.777344 120.042969 128.261719 120.558594 128.261719 121.191406 C 128.261719 121.828125 128.777344 122.339844 129.410156 122.339844 Z M 217.527344 121.191406 C 217.527344 120.558594 218.042969 120.042969 218.675781 120.042969 C 219.3125 120.042969 219.824219 120.558594 219.824219 121.191406 C 219.824219 121.828125 219.3125 122.339844 218.675781 122.339844 C 218.042969 122.339844 217.527344 121.828125 217.527344 121.191406 " fill-opacity="1" fill-rule="nonzero"/></g><g clip-path="url(#clip-1)"><path fill="rgb(59.21936%, 1.959229%, 76.469421%)" d="M 215.53125 122.023438 C 215.992188 122.023438 216.363281 121.652344 216.363281 121.191406 C 216.363281 120.734375 215.992188 120.359375 215.53125 120.359375 C 215.074219 120.359375 214.699219 120.734375 214.699219 121.191406 C 214.699219 121.652344 215.074219 122.023438 215.53125 122.023438 Z M 234.324219 146.917969 L 238.191406 146.917969 L 238.191406 145.964844 L 234.324219 145.964844 Z M 232.824219 134.046875 L 227.554688 130.894531 L 227.554688 137.199219 Z M 245.992188 142.753906 L 214.382812 142.753906 L 214.382812 126.21875 L 245.992188 126.21875 Z M 239.875 144.902344 L 237.179688 144.902344 L 237.179688 145.859375 L 239.875 145.859375 Z M 234.324219 144.902344 L 234.324219 145.859375 L 237.015625 145.859375 L 237.015625 144.902344 Z M 239.875 143.84375 L 234.324219 143.84375 L 234.324219 144.796875 L 239.875 144.796875 Z M 150.996094 146.972656 L 147.765625 146.972656 L 147.765625 147.289062 L 150.996094 147.289062 Z M 152.679688 146.230469 L 152.679688 145.910156 L 150.621094 145.910156 L 150.621094 146.230469 Z M 149.820312 145.910156 L 147.765625 145.910156 L 147.765625 146.230469 L 149.820312 146.230469 Z M 152.679688 144.851562 L 147.765625 144.851562 L 147.765625 145.171875 L 152.679688 145.171875 Z M 130.722656 146.972656 L 127.492188 146.972656 L 127.492188 147.289062 L 130.722656 147.289062 Z M 132.40625 146.230469 L 132.40625 145.910156 L 130.347656 145.910156 L 130.347656 146.230469 Z M 129.546875 145.910156 L 127.492188 145.910156 L 127.492188 146.230469 L 129.546875 146.230469 Z M 132.40625 144.851562 L 127.492188 144.851562 L 127.492188 145.171875 L 132.40625 145.171875 Z M 153.84375 137.097656 L 148.191406 137.097656 L 148.191406 139.082031 L 153.84375 139.082031 Z M 153.84375 128.457031 L 148.191406 128.457031 L 148.191406 130.4375 L 153.84375 130.4375 Z M 126.265625 122.023438 C 126.722656 122.023438 127.09375 121.652344 127.09375 121.191406 C 127.09375 120.734375 126.722656 120.359375 126.265625 120.359375 C 125.804688 120.359375 125.433594 120.734375 125.433594 121.191406 C 125.433594 121.652344 125.804688 122.023438 126.265625 122.023438 Z M 132.839844 133.792969 C 132.839844 136.402344 134.960938 138.527344 137.570312 138.527344 C 140.175781 138.527344 142.296875 136.402344 142.296875 133.792969 C 142.296875 131.183594 140.175781 129.058594 137.570312 129.058594 C 134.960938 129.058594 132.839844 131.183594 132.839844 133.792969 Z M 132.523438 133.792969 C 132.523438 131.007812 134.785156 128.738281 137.570312 128.738281 C 140.351562 128.738281 142.617188 131.007812 142.617188 133.792969 C 142.617188 136.578125 140.351562 138.84375 137.570312 138.84375 C 134.785156 138.84375 132.523438 136.578125 132.523438 133.792969 Z M 192.773438 162.320312 C 192.515625 162.320312 192.277344 162.53125 192.246094 162.789062 C 192.210938 163.050781 192.398438 163.257812 192.65625 163.257812 C 192.914062 163.257812 193.152344 163.050781 193.183594 162.789062 C 193.214844 162.53125 193.03125 162.320312 192.773438 162.320312 Z M 206.253906 162.46875 L 201.523438 162.46875 C 201.347656 162.46875 201.207031 162.613281 201.207031 162.789062 C 201.207031 162.964844 201.347656 163.105469 201.523438 163.105469 L 206.253906 163.105469 C 206.425781 163.105469 206.570312 162.964844 206.570312 162.789062 C 206.570312 162.613281 206.425781 162.46875 206.253906 162.46875 Z M 170.394531 122.339844 C 171.027344 122.339844 171.542969 121.828125 171.542969 121.191406 C 171.542969 120.558594 171.027344 120.042969 170.394531 120.042969 C 169.761719 120.042969 169.246094 120.558594 169.246094 121.191406 C 169.246094 121.828125 169.761719 122.339844 170.394531 122.339844 Z M 178.957031 143.730469 C 178.957031 144.230469 179.363281 144.640625 179.867188 144.640625 L 186.742188 144.640625 C 187.242188 144.640625 187.652344 144.230469 187.652344 143.730469 C 187.652344 143.226562 187.242188 142.820312 186.742188 142.820312 L 179.867188 142.820312 C 179.363281 142.820312 178.957031 143.226562 178.957031 143.730469 Z M 172.667969 139.105469 L 179.546875 139.105469 C 180.046875 139.105469 180.453125 138.699219 180.453125 138.195312 C 180.453125 137.695312 180.046875 137.285156 179.546875 137.285156 L 172.667969 137.285156 C 172.167969 137.285156 171.757812 137.695312 171.757812 138.195312 C 171.757812 138.699219 172.167969 139.105469 172.667969 139.105469 Z M 172.667969 133.574219 L 184.582031 133.574219 C 185.085938 133.574219 185.492188 133.164062 185.492188 132.664062 C 185.492188 132.160156 185.085938 131.753906 184.582031 131.753906 L 172.667969 131.753906 C 172.167969 131.753906 171.757812 132.160156 171.757812 132.664062 C 171.757812 133.164062 172.167969 133.574219 172.667969 133.574219 Z M 186.878906 139.105469 L 189.3125 139.105469 C 189.8125 139.105469 190.222656 138.699219 190.222656 138.195312 C 190.222656 137.695312 189.8125 137.285156 189.3125 137.285156 L 186.878906 137.285156 C 186.378906 137.285156 185.972656 137.695312 185.972656 138.195312 C 185.972656 138.699219 186.378906 139.105469 186.878906 139.105469 Z M 184.402344 139.105469 C 184.902344 139.105469 185.308594 138.699219 185.308594 138.195312 C 185.308594 137.695312 184.902344 137.285156 184.402344 137.285156 L 181.96875 137.285156 C 181.46875 137.285156 181.0625 137.695312 181.0625 138.195312 C 181.0625 138.699219 181.46875 139.105469 181.96875 139.105469 Z M 172.667969 130.808594 L 175.101562 130.808594 C 175.601562 130.808594 176.007812 130.398438 176.007812 129.898438 C 176.007812 129.394531 175.601562 128.988281 175.101562 128.988281 L 172.667969 128.988281 C 172.167969 128.988281 171.757812 129.394531 171.757812 129.898438 C 171.757812 130.398438 172.167969 130.808594 172.667969 130.808594 Z M 172.667969 128.039062 L 180.859375 128.039062 C 181.359375 128.039062 181.765625 127.632812 181.765625 127.132812 C 181.765625 126.628906 181.359375 126.21875 180.859375 126.21875 L 172.667969 126.21875 C 172.167969 126.21875 171.757812 126.628906 171.757812 127.132812 C 171.757812 127.632812 172.167969 128.039062 172.667969 128.039062 Z M 190.355469 248.273438 L 132.5625 248.273438 C 130.179688 248.273438 128.25 250.207031 128.25 252.589844 C 128.25 254.972656 130.179688 256.90625 132.5625 256.90625 L 190.355469 256.90625 C 192.734375 256.90625 194.664062 254.972656 194.664062 252.589844 C 194.664062 250.207031 192.734375 248.273438 190.355469 248.273438 Z M 257.03125 158.125 C 257.03125 157.953125 256.890625 157.808594 256.714844 157.808594 L 241.101562 157.808594 C 240.925781 157.808594 240.785156 157.953125 240.785156 158.125 C 240.785156 158.304688 240.925781 158.445312 241.101562 158.445312 L 256.714844 158.445312 C 256.890625 158.445312 257.03125 158.304688 257.03125 158.125 Z M 249.695312 163.105469 L 252.375 163.105469 C 252.546875 163.105469 252.691406 162.964844 252.691406 162.789062 C 252.691406 162.613281 252.546875 162.46875 252.375 162.46875 L 249.695312 162.46875 C 249.523438 162.46875 249.378906 162.613281 249.378906 162.789062 C 249.378906 162.964844 249.523438 163.105469 249.695312 163.105469 Z M 255.992188 164.867188 C 255.992188 164.691406 255.847656 164.546875 255.675781 164.546875 L 249.4375 164.546875 C 249.261719 164.546875 249.117188 164.691406 249.117188 164.867188 C 249.117188 165.042969 249.261719 165.183594 249.4375 165.183594 L 255.675781 165.183594 C 255.847656 165.183594 255.992188 165.042969 255.992188 164.867188 Z M 249.175781 167.261719 L 252.378906 167.261719 C 252.554688 167.261719 252.695312 167.117188 252.695312 166.945312 C 252.695312 166.765625 252.554688 166.625 252.378906 166.625 L 249.175781 166.625 C 249 166.625 248.859375 166.765625 248.859375 166.945312 C 248.859375 167.117188 249 167.261719 249.175781 167.261719 Z M 247.300781 180.515625 C 247.121094 180.515625 246.980469 180.660156 246.980469 180.835938 C 246.980469 181.011719 247.121094 181.152344 247.300781 181.152344 L 249.972656 181.152344 C 250.148438 181.152344 250.292969 181.011719 250.292969 180.835938 C 250.292969 180.660156 250.148438 180.515625 249.972656 180.515625 Z M 253.59375 182.910156 C 253.59375 182.734375 253.449219 182.59375 253.273438 182.59375 L 247.039062 182.59375 C 246.863281 182.59375 246.71875 182.734375 246.71875 182.910156 C 246.71875 183.085938 246.863281 183.230469 247.039062 183.230469 L 253.273438 183.230469 C 253.449219 183.230469 253.59375 183.085938 253.59375 182.910156 Z M 250.296875 184.988281 C 250.296875 184.8125 250.15625 184.671875 249.980469 184.671875 L 246.777344 184.671875 C 246.601562 184.671875 246.460938 184.8125 246.460938 184.988281 C 246.460938 185.164062 246.601562 185.308594 246.777344 185.308594 L 249.980469 185.308594 C 250.15625 185.308594 250.296875 185.164062 250.296875 184.988281 Z M 243.460938 165.105469 C 243.460938 164.929688 243.320312 164.789062 243.144531 164.789062 L 237.796875 164.789062 C 237.621094 164.789062 237.476562 164.929688 237.476562 165.105469 C 237.476562 165.28125 237.621094 165.421875 237.796875 165.421875 L 243.144531 165.421875 C 243.320312 165.421875 243.460938 165.28125 243.460938 165.105469 Z M 240.785156 169.261719 C 240.785156 169.085938 240.640625 168.945312 240.464844 168.945312 L 235.792969 168.945312 C 235.617188 168.945312 235.472656 169.085938 235.472656 169.261719 C 235.472656 169.4375 235.617188 169.578125 235.792969 169.578125 L 240.464844 169.578125 C 240.640625 169.578125 240.785156 169.4375 240.785156 169.261719 Z M 239.667969 195.355469 C 239.667969 195.179688 239.523438 195.039062 239.347656 195.039062 L 230.929688 195.039062 C 230.757812 195.039062 230.613281 195.179688 230.613281 195.355469 C 230.613281 195.53125 230.757812 195.675781 230.929688 195.675781 L 239.347656 195.675781 C 239.523438 195.675781 239.667969 195.53125 239.667969 195.355469 Z M 215.785156 160.472656 L 192.570312 160.472656 C 191.695312 160.472656 190.894531 161.183594 190.785156 162.0625 L 190.402344 165.105469 L 216.792969 165.105469 L 217.175781 162.0625 C 217.285156 161.183594 216.664062 160.472656 215.785156 160.472656 Z M 213.125 184.375 C 213.125 184.199219 212.984375 184.054688 212.808594 184.054688 L 209.976562 184.054688 C 209.800781 184.054688 209.660156 184.199219 209.660156 184.375 C 209.660156 184.550781 209.800781 184.691406 209.976562 184.691406 L 212.808594 184.691406 C 212.984375 184.691406 213.125 184.550781 213.125 184.375 Z M 206.292969 185.902344 C 206.292969 185.722656 206.152344 185.582031 205.976562 185.582031 L 203.324219 185.582031 C 203.148438 185.582031 203.003906 185.722656 203.003906 185.902344 C 203.003906 186.074219 203.148438 186.21875 203.324219 186.21875 L 205.976562 186.21875 C 206.152344 186.21875 206.292969 186.074219 206.292969 185.902344 Z M 200.800781 184.375 C 200.800781 184.199219 200.660156 184.054688 200.484375 184.054688 L 197.652344 184.054688 C 197.476562 184.054688 197.335938 184.199219 197.335938 184.375 C 197.335938 184.550781 197.476562 184.691406 197.652344 184.691406 L 200.484375 184.691406 C 200.660156 184.691406 200.800781 184.550781 200.800781 184.375 Z M 193.085938 196.660156 L 190.667969 196.660156 C 190.335938 196.660156 190.03125 196.933594 189.988281 197.265625 C 189.949219 197.597656 190.183594 197.871094 190.515625 197.871094 L 192.9375 197.871094 C 193.269531 197.871094 193.574219 197.597656 193.617188 197.265625 C 193.65625 196.933594 193.421875 196.660156 193.085938 196.660156 Z M 190.605469 192.523438 C 190.863281 192.523438 191.097656 192.3125 191.132812 192.050781 C 191.164062 191.792969 190.980469 191.582031 190.722656 191.582031 C 190.464844 191.582031 190.226562 191.792969 190.195312 192.050781 C 190.160156 192.3125 190.34375 192.523438 190.605469 192.523438 Z M 190.328125 185.902344 C 190.328125 186.074219 190.46875 186.21875 190.644531 186.21875 L 192.59375 186.21875 C 192.765625 186.21875 192.910156 186.074219 192.910156 185.902344 C 192.910156 185.722656 192.765625 185.582031 192.59375 185.582031 L 190.644531 185.582031 C 190.46875 185.582031 190.328125 185.722656 190.328125 185.902344 Z M 202.792969 169.261719 C 202.792969 169.085938 202.652344 168.945312 202.476562 168.945312 L 196.480469 168.945312 C 196.304688 168.945312 196.160156 169.085938 196.160156 169.261719 C 196.160156 169.4375 196.304688 169.578125 196.480469 169.578125 L 202.476562 169.578125 C 202.652344 169.578125 202.792969 169.4375 202.792969 169.261719 Z M 223.109375 203.664062 C 223.109375 203.84375 223.253906 203.984375 223.429688 203.984375 L 235.570312 203.984375 C 235.746094 203.984375 235.886719 203.84375 235.886719 203.664062 C 235.886719 203.492188 235.746094 203.347656 235.570312 203.347656 L 223.429688 203.347656 C 223.253906 203.347656 223.109375 203.492188 223.109375 203.664062 Z M 225.863281 181.726562 C 225.863281 181.898438 226.007812 182.042969 226.183594 182.042969 L 229.386719 182.042969 C 229.558594 182.042969 229.703125 181.898438 229.703125 181.726562 C 229.703125 181.546875 229.558594 181.40625 229.386719 181.40625 L 226.183594 181.40625 C 226.007812 181.40625 225.863281 181.546875 225.863281 181.726562 Z M 226.90625 173.417969 C 226.90625 173.589844 227.050781 173.734375 227.226562 173.734375 L 231.085938 173.734375 C 231.261719 173.734375 231.402344 173.589844 231.402344 173.417969 C 231.402344 173.238281 231.261719 173.097656 231.085938 173.097656 L 227.226562 173.097656 C 227.050781 173.097656 226.90625 173.238281 226.90625 173.417969 Z M 227.6875 167.183594 C 227.6875 167.359375 227.832031 167.5 228.007812 167.5 L 230.683594 167.5 C 230.859375 167.5 231 167.359375 231 167.183594 C 231 167.007812 230.859375 166.867188 230.683594 166.867188 L 228.007812 166.867188 C 227.832031 166.867188 227.6875 167.007812 227.6875 167.183594 Z M 238.320312 173.417969 C 238.320312 173.238281 238.179688 173.097656 238.003906 173.097656 L 232.472656 173.097656 C 232.296875 173.097656 232.15625 173.238281 232.15625 173.417969 C 232.15625 173.589844 232.296875 173.734375 232.472656 173.734375 L 238.003906 173.734375 C 238.179688 173.734375 238.320312 173.589844 238.320312 173.417969 Z M 239.164062 179.964844 C 239.339844 179.964844 239.480469 179.824219 239.480469 179.648438 C 239.480469 179.472656 239.339844 179.328125 239.164062 179.328125 L 234.488281 179.328125 C 234.3125 179.328125 234.171875 179.472656 234.171875 179.648438 C 234.171875 179.824219 234.3125 179.964844 234.488281 179.964844 Z M 259.058594 159.1875 L 254.140625 203.609375 C 253.996094 204.917969 252.890625 205.910156 251.570312 205.910156 L 182.699219 205.910156 C 181.957031 205.910156 181.273438 205.605469 180.777344 205.050781 C 180.675781 204.9375 180.59375 204.820312 180.515625 204.699219 C 179.800781 209.789062 176.371094 215.527344 176.371094 220.007812 C 176.371094 224.925781 180.117188 231.976562 180.117188 231.976562 C 180.117188 231.976562 178.789062 242.988281 165.300781 242.988281 C 160.429688 242.988281 156.988281 242.132812 155.21875 241.554688 C 154.296875 241.253906 153.621094 240.480469 153.414062 239.535156 C 151.847656 232.410156 152.910156 222.292969 154.015625 218.734375 C 154.761719 216.332031 153.882812 204.015625 151 195.234375 C 149.527344 190.757812 152.859375 186.148438 157.566406 186.148438 L 158.683594 182.59375 C 158.683594 182.59375 162.226562 180.875 165.976562 181.640625 C 169.722656 182.402344 171.511719 183.433594 172.910156 183.628906 L 172.003906 186.167969 C 173.546875 186.300781 174.929688 187.222656 175.636719 188.628906 C 177.160156 191.660156 179.585938 196.871094 180.382812 200.785156 L 185.050781 158.617188 C 185.195312 157.304688 186.300781 156.316406 187.617188 156.316406 L 256.488281 156.316406 C 257.234375 156.316406 257.917969 156.621094 258.414062 157.175781 C 258.910156 157.730469 259.140625 158.445312 259.058594 159.1875 Z M 194.550781 162.320312 C 194.292969 162.320312 194.054688 162.53125 194.023438 162.789062 C 193.992188 163.050781 194.175781 163.257812 194.433594 163.257812 C 194.691406 163.257812 194.929688 163.050781 194.960938 162.789062 C 194.996094 162.53125 194.8125 162.320312 194.550781 162.320312 Z M 196.328125 162.320312 C 196.070312 162.320312 195.832031 162.53125 195.800781 162.789062 C 195.769531 163.050781 195.953125 163.257812 196.210938 163.257812 C 196.472656 163.257812 196.707031 163.050781 196.742188 162.789062 C 196.773438 162.53125 196.589844 162.320312 196.328125 162.320312 Z M 147.664062 160.867188 L 143.882812 160.867188 L 143.882812 169.121094 L 147.664062 169.121094 Z M 134.398438 169.121094 L 138.179688 169.121094 L 138.179688 162.011719 L 134.398438 162.011719 Z M 128.695312 169.121094 L 124.914062 169.121094 L 124.914062 164.492188 L 128.695312 164.492188 L 128.695312 169.121094 " fill-opacity="1" fill-rule="nonzero"/></g><g clip-path="url(#clip-2)"><path fill="rgb(99.609375%, 76.078796%, 5.099487%)" d="M 137.570312 136.851562 C 139.257812 136.851562 140.625 135.484375 140.625 133.792969 C 140.625 132.101562 139.257812 130.734375 137.570312 130.734375 C 135.882812 130.734375 134.511719 132.101562 134.511719 133.792969 C 134.511719 135.484375 135.882812 136.851562 137.570312 136.851562 Z M 128.578125 121.191406 C 128.578125 121.652344 128.949219 122.023438 129.410156 122.023438 C 129.867188 122.023438 130.238281 121.652344 130.238281 121.191406 C 130.238281 120.734375 129.867188 120.359375 129.410156 120.359375 C 128.949219 120.359375 128.578125 120.734375 128.578125 121.191406 Z M 130.683594 128.464844 L 131.800781 130.21875 C 131.421875 130.832031 131.136719 131.511719 130.964844 132.238281 L 128.9375 132.683594 L 128.9375 134.902344 L 130.964844 135.347656 C 131.136719 136.074219 131.421875 136.753906 131.800781 137.367188 L 130.683594 139.121094 L 132.25 140.6875 L 134 139.570312 C 134.613281 139.949219 135.292969 140.234375 136.015625 140.40625 L 136.460938 142.433594 L 138.675781 142.433594 L 139.121094 140.40625 C 139.847656 140.234375 140.527344 139.949219 141.140625 139.570312 L 142.890625 140.6875 L 144.453125 139.121094 L 143.335938 137.367188 C 143.71875 136.753906 144.003906 136.074219 144.171875 135.347656 L 146.199219 134.902344 L 146.199219 132.683594 L 144.171875 132.238281 C 144.003906 131.511719 143.71875 130.832031 143.335938 130.21875 L 144.453125 128.464844 L 142.890625 126.898438 L 141.140625 128.019531 C 140.527344 127.636719 139.847656 127.351562 139.121094 127.183594 L 138.675781 125.148438 L 136.460938 125.148438 L 136.015625 127.183594 C 135.292969 127.351562 134.613281 127.636719 134 128.019531 L 132.25 126.898438 Z M 148.191406 135.773438 L 156.828125 135.773438 L 156.828125 133.792969 L 148.191406 133.792969 Z M 148.191406 127.132812 L 156.828125 127.132812 L 156.828125 125.148438 L 148.191406 125.148438 Z M 139.164062 144.851562 L 134.25 144.851562 L 134.25 145.171875 L 139.164062 145.171875 Z M 139.164062 145.910156 L 137.105469 145.910156 L 137.105469 146.230469 L 139.164062 146.230469 Z M 136.304688 146.230469 L 136.304688 145.910156 L 134.25 145.910156 L 134.25 146.230469 Z M 137.480469 146.972656 L 134.25 146.972656 L 134.25 147.289062 L 137.480469 147.289062 Z M 160.632812 142.980469 L 166.375 142.980469 L 166.375 134.207031 L 160.632812 134.207031 Z M 160.632812 133.886719 L 166.375 133.886719 L 166.375 125.113281 L 160.632812 125.113281 Z M 169.5625 143.730469 C 169.5625 144.058594 169.828125 144.320312 170.152344 144.320312 L 170.210938 144.320312 C 170.535156 144.320312 170.800781 144.058594 170.800781 143.730469 C 170.800781 143.402344 170.535156 143.136719 170.210938 143.136719 L 170.152344 143.136719 C 169.828125 143.136719 169.5625 143.402344 169.5625 143.730469 Z M 169.5625 140.964844 C 169.5625 141.289062 169.828125 141.554688 170.152344 141.554688 L 170.210938 141.554688 C 170.535156 141.554688 170.800781 141.289062 170.800781 140.964844 C 170.800781 140.636719 170.535156 140.371094 170.210938 140.371094 L 170.152344 140.371094 C 169.828125 140.371094 169.5625 140.636719 169.5625 140.964844 Z M 169.5625 138.199219 C 169.5625 138.523438 169.828125 138.789062 170.152344 138.789062 L 170.210938 138.789062 C 170.535156 138.789062 170.800781 138.523438 170.800781 138.199219 C 170.800781 137.871094 170.535156 137.605469 170.210938 137.605469 L 170.152344 137.605469 C 169.828125 137.605469 169.5625 137.871094 169.5625 138.199219 Z M 169.5625 135.429688 C 169.5625 135.757812 169.828125 136.023438 170.152344 136.023438 L 170.210938 136.023438 C 170.535156 136.023438 170.800781 135.757812 170.800781 135.429688 C 170.800781 135.101562 170.535156 134.835938 170.210938 134.835938 L 170.152344 134.835938 C 169.828125 134.835938 169.5625 135.101562 169.5625 135.429688 Z M 169.5625 132.664062 C 169.5625 132.992188 169.828125 133.253906 170.152344 133.253906 L 170.210938 133.253906 C 170.535156 133.253906 170.800781 132.992188 170.800781 132.664062 C 170.800781 132.335938 170.535156 132.070312 170.210938 132.070312 L 170.152344 132.070312 C 169.828125 132.070312 169.5625 132.335938 169.5625 132.664062 Z M 169.5625 129.898438 C 169.5625 130.222656 169.828125 130.488281 170.152344 130.488281 L 170.210938 130.488281 C 170.535156 130.488281 170.800781 130.222656 170.800781 129.898438 C 170.800781 129.570312 170.535156 129.304688 170.210938 129.304688 L 170.152344 129.304688 C 169.828125 129.304688 169.5625 129.570312 169.5625 129.898438 Z M 169.5625 127.132812 C 169.5625 127.457031 169.828125 127.722656 170.152344 127.722656 L 170.210938 127.722656 C 170.535156 127.722656 170.800781 127.457031 170.800781 127.132812 C 170.800781 126.804688 170.535156 126.539062 170.210938 126.539062 L 170.152344 126.539062 C 169.828125 126.539062 169.5625 126.804688 169.5625 127.132812 Z M 169.5625 124.363281 C 169.5625 124.691406 169.828125 124.957031 170.152344 124.957031 L 170.210938 124.957031 C 170.535156 124.957031 170.800781 124.691406 170.800781 124.363281 C 170.800781 124.035156 170.535156 123.769531 170.210938 123.769531 L 170.152344 123.769531 C 169.828125 123.769531 169.5625 124.035156 169.5625 124.363281 Z M 169.5625 121.191406 C 169.5625 121.652344 169.933594 122.023438 170.394531 122.023438 C 170.851562 122.023438 171.222656 121.652344 171.222656 121.191406 C 171.222656 120.734375 170.851562 120.359375 170.394531 120.359375 C 169.933594 120.359375 169.5625 120.734375 169.5625 121.191406 Z M 172.074219 143.730469 C 172.074219 144.058594 172.339844 144.320312 172.667969 144.320312 L 177.683594 144.320312 C 178.007812 144.320312 178.273438 144.058594 178.273438 143.730469 C 178.273438 143.402344 178.007812 143.136719 177.683594 143.136719 L 172.667969 143.136719 C 172.339844 143.136719 172.074219 143.402344 172.074219 143.730469 Z M 172.074219 140.964844 C 172.074219 141.289062 172.339844 141.554688 172.667969 141.554688 L 183.398438 141.554688 C 183.722656 141.554688 183.988281 141.289062 183.988281 140.964844 C 183.988281 140.636719 183.722656 140.371094 183.398438 140.371094 L 172.667969 140.371094 C 172.339844 140.371094 172.074219 140.636719 172.074219 140.964844 Z M 172.074219 138.199219 C 172.074219 138.523438 172.339844 138.789062 172.667969 138.789062 L 179.546875 138.789062 C 179.871094 138.789062 180.136719 138.523438 180.136719 138.199219 C 180.136719 137.871094 179.871094 137.605469 179.546875 137.605469 L 172.667969 137.605469 C 172.339844 137.605469 172.074219 137.871094 172.074219 138.199219 Z M 172.074219 135.429688 C 172.074219 135.757812 172.339844 136.023438 172.667969 136.023438 L 181.746094 136.023438 C 182.074219 136.023438 182.335938 135.757812 182.335938 135.429688 C 182.335938 135.101562 182.074219 134.835938 181.746094 134.835938 L 172.667969 134.835938 C 172.339844 134.835938 172.074219 135.101562 172.074219 135.429688 Z M 172.074219 132.664062 C 172.074219 132.992188 172.339844 133.253906 172.667969 133.253906 L 184.582031 133.253906 C 184.910156 133.253906 185.175781 132.992188 185.175781 132.664062 C 185.175781 132.335938 184.910156 132.070312 184.582031 132.070312 L 172.667969 132.070312 C 172.339844 132.070312 172.074219 132.335938 172.074219 132.664062 Z M 172.074219 129.898438 C 172.074219 130.222656 172.339844 130.488281 172.667969 130.488281 L 175.101562 130.488281 C 175.425781 130.488281 175.691406 130.222656 175.691406 129.898438 C 175.691406 129.570312 175.425781 129.304688 175.101562 129.304688 L 172.667969 129.304688 C 172.339844 129.304688 172.074219 129.570312 172.074219 129.898438 Z M 172.074219 127.132812 C 172.074219 127.457031 172.339844 127.722656 172.667969 127.722656 L 180.859375 127.722656 C 181.183594 127.722656 181.449219 127.457031 181.449219 127.132812 C 181.449219 126.804688 181.183594 126.539062 180.859375 126.539062 L 172.667969 126.539062 C 172.339844 126.539062 172.074219 126.804688 172.074219 127.132812 Z M 172.074219 124.363281 C 172.074219 124.691406 172.339844 124.957031 172.667969 124.957031 L 176.429688 124.957031 C 176.753906 124.957031 177.019531 124.691406 177.019531 124.363281 C 177.019531 124.035156 176.753906 123.769531 176.429688 123.769531 L 172.667969 123.769531 C 172.339844 123.769531 172.074219 124.035156 172.074219 124.363281 Z M 172.707031 121.191406 C 172.707031 121.652344 173.078125 122.023438 173.539062 122.023438 C 173.996094 122.023438 174.371094 121.652344 174.371094 121.191406 C 174.371094 120.734375 173.996094 120.359375 173.539062 120.359375 C 173.078125 120.359375 172.707031 120.734375 172.707031 121.191406 Z M 189.945312 129.304688 L 178.03125 129.304688 C 177.703125 129.304688 177.441406 129.570312 177.441406 129.898438 C 177.441406 130.222656 177.703125 130.488281 178.03125 130.488281 L 189.945312 130.488281 C 190.273438 130.488281 190.539062 130.222656 190.539062 129.898438 C 190.539062 129.570312 190.273438 129.304688 189.945312 129.304688 Z M 190.199219 132.664062 C 190.199219 132.335938 189.9375 132.070312 189.609375 132.070312 L 187.175781 132.070312 C 186.851562 132.070312 186.585938 132.335938 186.585938 132.664062 C 186.585938 132.992188 186.851562 133.253906 187.175781 133.253906 L 189.609375 133.253906 C 189.9375 133.253906 190.199219 132.992188 190.199219 132.664062 Z M 189.902344 138.199219 C 189.902344 137.871094 189.640625 137.605469 189.3125 137.605469 L 186.878906 137.605469 C 186.554688 137.605469 186.289062 137.871094 186.289062 138.199219 C 186.289062 138.523438 186.554688 138.789062 186.878906 138.789062 L 189.3125 138.789062 C 189.640625 138.789062 189.902344 138.523438 189.902344 138.199219 Z M 184.992188 138.199219 C 184.992188 137.871094 184.730469 137.605469 184.402344 137.605469 L 181.96875 137.605469 C 181.644531 137.605469 181.378906 137.871094 181.378906 138.199219 C 181.378906 138.523438 181.644531 138.789062 181.96875 138.789062 L 184.402344 138.789062 C 184.730469 138.789062 184.992188 138.523438 184.992188 138.199219 Z M 187.332031 143.730469 C 187.332031 143.402344 187.070312 143.136719 186.742188 143.136719 L 179.867188 143.136719 C 179.539062 143.136719 179.273438 143.402344 179.273438 143.730469 C 179.273438 144.058594 179.539062 144.320312 179.867188 144.320312 L 186.742188 144.320312 C 187.070312 144.320312 187.332031 144.058594 187.332031 143.730469 Z M 203.609375 142.980469 L 211.128906 142.980469 L 211.128906 134.207031 L 203.609375 134.207031 Z M 203.609375 133.886719 L 211.128906 133.886719 L 211.128906 125.113281 L 203.609375 125.113281 Z M 214.699219 142.433594 L 245.675781 142.433594 L 245.675781 126.539062 L 214.699219 126.539062 Z M 217.847656 121.191406 C 217.847656 121.652344 218.21875 122.023438 218.675781 122.023438 C 219.136719 122.023438 219.507812 121.652344 219.507812 121.191406 C 219.507812 120.734375 219.136719 120.359375 218.675781 120.359375 C 218.21875 120.359375 217.847656 120.734375 217.847656 121.191406 Z M 239.558594 144.164062 L 234.640625 144.164062 L 234.640625 144.480469 L 239.558594 144.480469 Z M 239.558594 145.222656 L 237.5 145.222656 L 237.5 145.539062 L 239.558594 145.539062 Z M 236.699219 145.539062 L 236.699219 145.222656 L 234.640625 145.222656 L 234.640625 145.539062 Z M 237.875 146.28125 L 234.640625 146.28125 L 234.640625 146.601562 L 237.875 146.601562 Z M 229.394531 144.164062 L 224.480469 144.164062 L 224.480469 144.480469 L 229.394531 144.480469 Z M 229.394531 145.222656 L 227.339844 145.222656 L 227.339844 145.539062 L 229.394531 145.539062 Z M 226.539062 145.539062 L 226.539062 145.222656 L 224.480469 145.222656 L 224.480469 145.539062 Z M 227.710938 146.28125 L 224.480469 146.28125 L 224.480469 146.601562 L 227.710938 146.601562 Z M 123.398438 149.398438 L 123.398438 119.867188 C 123.398438 118.992188 124.109375 118.277344 124.988281 118.277344 L 159.046875 118.277344 C 159.921875 118.277344 160.632812 118.992188 160.632812 119.867188 L 160.632812 124.796875 L 166.375 124.796875 L 166.375 119.867188 C 166.375 118.992188 167.085938 118.277344 167.964844 118.277344 L 202.023438 118.277344 C 202.898438 118.277344 203.609375 118.992188 203.609375 119.867188 L 203.609375 124.796875 L 211.128906 124.796875 L 211.128906 119.867188 C 211.128906 118.992188 211.835938 118.277344 212.714844 118.277344 L 246.769531 118.277344 C 247.648438 118.277344 248.359375 118.992188 248.359375 119.867188 L 248.359375 142.980469 L 252.460938 142.980469 C 252.527344 143.082031 252.585938 143.191406 252.648438 143.296875 L 248.359375 143.296875 L 248.359375 149.398438 C 248.359375 150.277344 247.648438 150.988281 246.769531 150.988281 L 212.714844 150.988281 C 211.835938 150.988281 211.128906 150.277344 211.128906 149.398438 L 211.128906 143.296875 L 203.609375 143.296875 L 203.609375 146.089844 C 203.609375 146.96875 202.898438 147.679688 202.023438 147.679688 L 167.964844 147.679688 C 167.085938 147.679688 166.375 146.96875 166.375 146.089844 L 166.375 143.296875 L 160.632812 143.296875 L 160.632812 149.398438 C 160.632812 150.277344 159.921875 150.988281 159.046875 150.988281 L 124.988281 150.988281 C 124.109375 150.988281 123.398438 150.277344 123.398438 149.398438 Z M 232.71875 157.808594 C 232.542969 157.808594 232.402344 157.953125 232.402344 158.125 C 232.402344 158.304688 232.542969 158.445312 232.71875 158.445312 L 239.132812 158.445312 C 239.308594 158.445312 239.449219 158.304688 239.449219 158.125 C 239.449219 157.953125 239.308594 157.808594 239.132812 157.808594 Z M 239.667969 195.355469 C 239.667969 195.179688 239.523438 195.039062 239.347656 195.039062 L 230.929688 195.039062 C 230.757812 195.039062 230.613281 195.179688 230.613281 195.355469 C 230.613281 195.53125 230.757812 195.675781 230.929688 195.675781 L 239.347656 195.675781 C 239.523438 195.675781 239.667969 195.53125 239.667969 195.355469 Z M 236.148438 201.589844 C 236.148438 201.414062 236.007812 201.269531 235.832031 201.269531 L 223.6875 201.269531 C 223.515625 201.269531 223.371094 201.414062 223.371094 201.589844 C 223.371094 201.765625 223.515625 201.90625 223.6875 201.90625 L 235.832031 201.90625 C 236.007812 201.90625 236.148438 201.765625 236.148438 201.589844 Z M 235.886719 203.664062 C 235.886719 203.492188 235.746094 203.347656 235.570312 203.347656 L 223.429688 203.347656 C 223.253906 203.347656 223.109375 203.492188 223.109375 203.664062 C 223.109375 203.84375 223.253906 203.984375 223.429688 203.984375 L 235.570312 203.984375 C 235.746094 203.984375 235.886719 203.84375 235.886719 203.664062 Z M 223.894531 197.433594 C 223.894531 197.609375 224.035156 197.75 224.210938 197.75 L 234.023438 197.75 C 234.199219 197.75 234.339844 197.609375 234.339844 197.433594 C 234.339844 197.257812 234.199219 197.113281 234.023438 197.113281 L 224.210938 197.113281 C 224.035156 197.113281 223.894531 197.257812 223.894531 197.433594 Z M 224.15625 195.355469 C 224.15625 195.53125 224.296875 195.675781 224.472656 195.675781 L 228.679688 195.675781 C 228.855469 195.675781 228.996094 195.53125 228.996094 195.355469 C 228.996094 195.179688 228.855469 195.039062 228.679688 195.039062 L 224.472656 195.039062 C 224.296875 195.039062 224.15625 195.179688 224.15625 195.355469 Z M 224.414062 193.28125 C 224.414062 193.453125 224.554688 193.597656 224.730469 193.597656 L 236.875 193.597656 C 237.050781 193.597656 237.191406 193.453125 237.191406 193.28125 C 237.191406 193.101562 237.050781 192.960938 236.875 192.960938 L 224.730469 192.960938 C 224.554688 192.960938 224.414062 193.101562 224.414062 193.28125 Z M 222.078125 193.28125 C 222.078125 193.101562 221.933594 192.960938 221.761719 192.960938 L 219.644531 192.960938 C 219.46875 192.960938 219.324219 193.101562 219.324219 193.28125 C 219.324219 193.453125 219.46875 193.597656 219.644531 193.597656 L 221.761719 193.597656 C 221.933594 193.597656 222.078125 193.453125 222.078125 193.28125 Z M 221.816406 195.355469 C 221.816406 195.179688 221.675781 195.039062 221.5 195.039062 L 219.382812 195.039062 C 219.207031 195.039062 219.066406 195.179688 219.066406 195.355469 C 219.066406 195.53125 219.207031 195.675781 219.382812 195.675781 L 221.5 195.675781 C 221.675781 195.675781 221.816406 195.53125 221.816406 195.355469 Z M 221.554688 197.433594 C 221.554688 197.257812 221.414062 197.113281 221.238281 197.113281 L 219.121094 197.113281 C 218.945312 197.113281 218.804688 197.257812 218.804688 197.433594 C 218.804688 197.609375 218.945312 197.75 219.121094 197.75 L 221.238281 197.75 C 221.414062 197.75 221.554688 197.609375 221.554688 197.433594 Z M 221.035156 201.589844 C 221.035156 201.414062 220.890625 201.269531 220.71875 201.269531 L 218.601562 201.269531 C 218.425781 201.269531 218.28125 201.414062 218.28125 201.589844 C 218.28125 201.765625 218.425781 201.90625 218.601562 201.90625 L 220.71875 201.90625 C 220.890625 201.90625 221.035156 201.765625 221.035156 201.589844 Z M 220.773438 203.664062 C 220.773438 203.492188 220.632812 203.347656 220.457031 203.347656 L 218.339844 203.347656 C 218.164062 203.347656 218.023438 203.492188 218.023438 203.664062 C 218.023438 203.84375 218.164062 203.984375 218.339844 203.984375 L 220.457031 203.984375 C 220.632812 203.984375 220.773438 203.84375 220.773438 203.664062 Z M 243.867188 192 L 242.121094 205.910156 L 238.308594 205.910156 C 238.339844 205.863281 238.363281 205.804688 238.363281 205.742188 C 238.363281 205.566406 238.222656 205.425781 238.042969 205.425781 L 229.628906 205.425781 C 229.453125 205.425781 229.308594 205.566406 229.308594 205.742188 C 229.308594 205.804688 229.332031 205.863281 229.363281 205.910156 L 227.640625 205.910156 C 227.671875 205.863281 227.695312 205.804688 227.695312 205.742188 C 227.695312 205.566406 227.550781 205.425781 227.375 205.425781 L 223.167969 205.425781 C 222.992188 205.425781 222.847656 205.566406 222.847656 205.742188 C 222.847656 205.804688 222.875 205.863281 222.902344 205.910156 L 220.457031 205.910156 C 220.492188 205.863281 220.511719 205.804688 220.511719 205.742188 C 220.511719 205.566406 220.371094 205.425781 220.195312 205.425781 L 218.078125 205.425781 C 217.902344 205.425781 217.761719 205.566406 217.761719 205.742188 C 217.761719 205.804688 217.785156 205.863281 217.816406 205.910156 L 215.730469 205.910156 L 217.476562 192 C 217.585938 191.125 218.386719 190.410156 219.261719 190.410156 L 242.476562 190.410156 C 243.355469 190.410156 243.976562 191.125 243.867188 192 Z M 198.789062 196.660156 L 196.371094 196.660156 C 196.039062 196.660156 195.734375 196.933594 195.695312 197.265625 C 195.652344 197.597656 195.886719 197.871094 196.21875 197.871094 L 198.640625 197.871094 C 198.972656 197.871094 199.277344 197.597656 199.320312 197.265625 C 199.359375 196.933594 199.125 196.660156 198.789062 196.660156 Z M 193.085938 196.660156 L 190.667969 196.660156 C 190.335938 196.660156 190.03125 196.933594 189.988281 197.265625 C 189.949219 197.597656 190.183594 197.871094 190.515625 197.871094 L 192.9375 197.871094 C 193.269531 197.871094 193.574219 197.597656 193.617188 197.265625 C 193.65625 196.933594 193.421875 196.660156 193.085938 196.660156 Z M 188.945312 191.582031 C 188.683594 191.582031 188.449219 191.792969 188.414062 192.050781 C 188.382812 192.3125 188.566406 192.523438 188.824219 192.523438 C 189.085938 192.523438 189.320312 192.3125 189.355469 192.050781 C 189.386719 191.792969 189.203125 191.582031 188.945312 191.582031 Z M 190.605469 192.523438 C 190.863281 192.523438 191.097656 192.3125 191.132812 192.050781 C 191.164062 191.792969 190.980469 191.582031 190.722656 191.582031 C 190.464844 191.582031 190.226562 191.792969 190.195312 192.050781 C 190.160156 192.3125 190.34375 192.523438 190.605469 192.523438 Z M 192.382812 192.523438 C 192.640625 192.523438 192.878906 192.3125 192.910156 192.050781 C 192.945312 191.792969 192.761719 191.582031 192.5 191.582031 C 192.242188 191.582031 192.003906 191.792969 191.972656 192.050781 C 191.9375 192.3125 192.121094 192.523438 192.382812 192.523438 Z M 197.328125 194.5 L 192.59375 194.5 C 192.421875 194.5 192.277344 194.640625 192.277344 194.816406 C 192.277344 194.992188 192.421875 195.136719 192.59375 195.136719 L 197.328125 195.136719 C 197.503906 195.136719 197.644531 194.992188 197.644531 194.816406 C 197.644531 194.640625 197.503906 194.5 197.328125 194.5 Z M 202.132812 190.40625 C 203.011719 190.40625 203.632812 191.121094 203.523438 191.996094 L 202.855469 197.296875 C 202.746094 198.175781 201.945312 198.886719 201.070312 198.886719 L 187.585938 198.886719 C 186.710938 198.886719 186.089844 198.175781 186.199219 197.296875 L 186.863281 191.996094 C 186.972656 191.121094 187.773438 190.40625 188.652344 190.40625 Z M 194.960938 162.789062 C 194.996094 162.53125 194.8125 162.320312 194.550781 162.320312 C 194.292969 162.320312 194.054688 162.53125 194.023438 162.789062 C 193.992188 163.050781 194.175781 163.257812 194.433594 163.257812 C 194.691406 163.257812 194.929688 163.050781 194.960938 162.789062 Z M 211.726562 185.902344 C 211.726562 185.722656 211.582031 185.582031 211.40625 185.582031 L 209.785156 185.582031 C 209.609375 185.582031 209.46875 185.722656 209.46875 185.902344 C 209.46875 186.074219 209.609375 186.21875 209.785156 186.21875 L 211.40625 186.21875 C 211.582031 186.21875 211.726562 186.074219 211.726562 185.902344 Z M 209.398438 169.578125 C 209.574219 169.578125 209.714844 169.4375 209.714844 169.261719 C 209.714844 169.085938 209.574219 168.945312 209.398438 168.945312 L 204.671875 168.945312 C 204.496094 168.945312 204.351562 169.085938 204.351562 169.261719 C 204.351562 169.4375 204.496094 169.578125 204.671875 169.578125 Z M 208.476562 172.042969 L 196.976562 172.042969 C 196.507812 172.042969 196.082031 172.425781 196.023438 172.894531 L 195.675781 175.664062 C 195.617188 176.128906 195.949219 176.511719 196.414062 176.511719 L 207.917969 176.511719 C 208.382812 176.511719 208.8125 176.128906 208.871094 175.664062 L 209.21875 172.894531 C 209.277344 172.425781 208.945312 172.042969 208.476562 172.042969 Z M 203.515625 184.691406 L 205.136719 184.691406 C 205.3125 184.691406 205.453125 184.550781 205.453125 184.375 C 205.453125 184.199219 205.3125 184.054688 205.136719 184.054688 L 203.515625 184.054688 C 203.339844 184.054688 203.199219 184.199219 203.199219 184.375 C 203.199219 184.550781 203.339844 184.691406 203.515625 184.691406 Z M 206.292969 185.902344 C 206.292969 185.722656 206.152344 185.582031 205.976562 185.582031 L 203.324219 185.582031 C 203.148438 185.582031 203.003906 185.722656 203.003906 185.902344 C 203.003906 186.074219 203.148438 186.21875 203.324219 186.21875 L 205.976562 186.21875 C 206.152344 186.21875 206.292969 186.074219 206.292969 185.902344 Z M 200.800781 184.375 C 200.800781 184.199219 200.660156 184.054688 200.484375 184.054688 L 197.652344 184.054688 C 197.476562 184.054688 197.335938 184.199219 197.335938 184.375 C 197.335938 184.550781 197.476562 184.691406 197.652344 184.691406 L 200.484375 184.691406 C 200.660156 184.691406 200.800781 184.550781 200.800781 184.375 Z M 199.402344 185.902344 C 199.402344 185.722656 199.257812 185.582031 199.082031 185.582031 L 197.460938 185.582031 C 197.285156 185.582031 197.140625 185.722656 197.140625 185.902344 C 197.140625 186.074219 197.285156 186.21875 197.460938 186.21875 L 199.082031 186.21875 C 199.257812 186.21875 199.402344 186.074219 199.402344 185.902344 Z M 194.398438 184.375 C 194.398438 184.199219 194.257812 184.054688 194.078125 184.054688 L 190.835938 184.054688 C 190.660156 184.054688 190.515625 184.199219 190.515625 184.375 C 190.515625 184.550781 190.660156 184.691406 190.835938 184.691406 L 194.078125 184.691406 C 194.257812 184.691406 194.398438 184.550781 194.398438 184.375 Z M 192.910156 185.902344 C 192.910156 185.722656 192.765625 185.582031 192.59375 185.582031 L 190.644531 185.582031 C 190.46875 185.582031 190.328125 185.722656 190.328125 185.902344 C 190.328125 186.074219 190.46875 186.21875 190.644531 186.21875 L 192.59375 186.21875 C 192.765625 186.21875 192.910156 186.074219 192.910156 185.902344 Z M 196.160156 169.261719 C 196.160156 169.4375 196.304688 169.578125 196.480469 169.578125 L 202.476562 169.578125 C 202.652344 169.578125 202.792969 169.4375 202.792969 169.261719 C 202.792969 169.085938 202.652344 168.945312 202.476562 168.945312 L 196.480469 168.945312 C 196.304688 168.945312 196.160156 169.085938 196.160156 169.261719 Z M 209.660156 184.375 C 209.660156 184.550781 209.800781 184.691406 209.976562 184.691406 L 212.808594 184.691406 C 212.984375 184.691406 213.125 184.550781 213.125 184.375 C 213.125 184.199219 212.984375 184.054688 212.808594 184.054688 L 209.976562 184.054688 C 209.800781 184.054688 209.660156 184.199219 209.660156 184.375 Z M 212.320312 188.085938 L 189.105469 188.085938 C 188.230469 188.085938 187.609375 187.371094 187.71875 186.496094 L 190.402344 165.105469 L 216.792969 165.105469 L 217.175781 162.0625 L 214.109375 186.496094 C 214 187.371094 213.199219 188.085938 212.320312 188.085938 Z M 247.871094 203.65625 L 244.667969 203.65625 C 244.492188 203.65625 244.347656 203.800781 244.347656 203.976562 C 244.347656 204.148438 244.492188 204.292969 244.667969 204.292969 L 247.871094 204.292969 C 248.046875 204.292969 248.1875 204.148438 248.1875 203.976562 C 248.1875 203.800781 248.046875 203.65625 247.871094 203.65625 Z M 249.4375 201.578125 L 244.929688 201.578125 C 244.753906 201.578125 244.609375 201.722656 244.609375 201.898438 C 244.609375 202.074219 244.753906 202.214844 244.929688 202.214844 L 249.4375 202.214844 C 249.613281 202.214844 249.753906 202.074219 249.753906 201.898438 C 249.753906 201.722656 249.613281 201.578125 249.4375 201.578125 Z M 245.1875 200.136719 L 247.863281 200.136719 C 248.039062 200.136719 248.183594 199.996094 248.183594 199.820312 C 248.183594 199.644531 248.039062 199.503906 247.863281 199.503906 L 245.1875 199.503906 C 245.011719 199.503906 244.871094 199.644531 244.871094 199.820312 C 244.871094 199.996094 245.011719 200.136719 245.1875 200.136719 Z M 250.988281 176.035156 L 247.785156 176.035156 C 247.609375 176.035156 247.46875 176.179688 247.46875 176.355469 C 247.46875 176.53125 247.609375 176.671875 247.785156 176.671875 L 250.988281 176.671875 C 251.164062 176.671875 251.308594 176.53125 251.308594 176.355469 C 251.308594 176.179688 251.164062 176.035156 250.988281 176.035156 Z M 252.554688 173.960938 L 248.046875 173.960938 C 247.871094 173.960938 247.730469 174.101562 247.730469 174.277344 C 247.730469 174.453125 247.871094 174.597656 248.046875 174.597656 L 252.554688 174.597656 C 252.730469 174.597656 252.871094 174.453125 252.871094 174.277344 C 252.871094 174.101562 252.730469 173.960938 252.554688 173.960938 Z M 248.308594 171.882812 C 248.132812 171.882812 247.988281 172.023438 247.988281 172.199219 C 247.988281 172.375 248.132812 172.519531 248.308594 172.519531 L 250.984375 172.519531 C 251.160156 172.519531 251.300781 172.375 251.300781 172.199219 C 251.300781 172.023438 251.160156 171.882812 250.984375 171.882812 Z M 243.460938 165.105469 C 243.460938 164.929688 243.320312 164.789062 243.144531 164.789062 L 237.796875 164.789062 C 237.621094 164.789062 237.476562 164.929688 237.476562 165.105469 C 237.476562 165.28125 237.621094 165.421875 237.796875 165.421875 L 243.144531 165.421875 C 243.320312 165.421875 243.460938 165.28125 243.460938 165.105469 Z M 240.785156 169.261719 C 240.785156 169.085938 240.640625 168.945312 240.464844 168.945312 L 235.792969 168.945312 C 235.617188 168.945312 235.472656 169.085938 235.472656 169.261719 C 235.472656 169.4375 235.617188 169.578125 235.792969 169.578125 L 240.464844 169.578125 C 240.640625 169.578125 240.785156 169.4375 240.785156 169.261719 Z M 239.480469 179.648438 C 239.480469 179.472656 239.339844 179.328125 239.164062 179.328125 L 234.488281 179.328125 C 234.3125 179.328125 234.171875 179.472656 234.171875 179.648438 C 234.171875 179.824219 234.3125 179.964844 234.488281 179.964844 L 239.164062 179.964844 C 239.339844 179.964844 239.480469 179.824219 239.480469 179.648438 Z M 237.160156 181.726562 C 237.160156 181.546875 237.019531 181.40625 236.839844 181.40625 L 231.191406 181.40625 C 231.015625 181.40625 230.875 181.546875 230.875 181.726562 C 230.875 181.898438 231.015625 182.042969 231.191406 182.042969 L 236.839844 182.042969 C 237.019531 182.042969 237.160156 181.898438 237.160156 181.726562 Z M 233.957031 183.800781 C 233.957031 183.625 233.816406 183.484375 233.640625 183.484375 L 225.921875 183.484375 C 225.746094 183.484375 225.605469 183.625 225.605469 183.800781 C 225.605469 183.976562 225.746094 184.121094 225.921875 184.121094 L 233.640625 184.121094 C 233.816406 184.121094 233.957031 183.976562 233.957031 183.800781 Z M 225.613281 165.105469 C 225.613281 164.929688 225.472656 164.789062 225.296875 164.789062 L 223.179688 164.789062 C 223.003906 164.789062 222.863281 164.929688 222.863281 165.105469 C 222.863281 165.28125 223.003906 165.421875 223.179688 165.421875 L 225.296875 165.421875 C 225.472656 165.421875 225.613281 165.28125 225.613281 165.105469 Z M 225.351562 167.183594 C 225.351562 167.007812 225.210938 166.867188 225.035156 166.867188 L 222.917969 166.867188 C 222.742188 166.867188 222.601562 167.007812 222.601562 167.183594 C 222.601562 167.359375 222.742188 167.5 222.917969 167.5 L 225.035156 167.5 C 225.210938 167.5 225.351562 167.359375 225.351562 167.183594 Z M 225.09375 169.261719 C 225.09375 169.085938 224.949219 168.945312 224.773438 168.945312 L 222.660156 168.945312 C 222.480469 168.945312 222.339844 169.085938 222.339844 169.261719 C 222.339844 169.4375 222.480469 169.578125 222.660156 169.578125 L 224.773438 169.578125 C 224.949219 169.578125 225.09375 169.4375 225.09375 169.261719 Z M 224.832031 171.339844 C 224.832031 171.164062 224.6875 171.019531 224.515625 171.019531 L 222.398438 171.019531 C 222.222656 171.019531 222.078125 171.164062 222.078125 171.339844 C 222.078125 171.511719 222.222656 171.65625 222.398438 171.65625 L 224.515625 171.65625 C 224.6875 171.65625 224.832031 171.511719 224.832031 171.339844 Z M 224.570312 173.417969 C 224.570312 173.238281 224.429688 173.097656 224.253906 173.097656 L 222.136719 173.097656 C 221.960938 173.097656 221.820312 173.238281 221.820312 173.417969 C 221.820312 173.589844 221.960938 173.734375 222.136719 173.734375 L 224.253906 173.734375 C 224.429688 173.734375 224.570312 173.589844 224.570312 173.417969 Z M 224.050781 177.570312 C 224.050781 177.394531 223.90625 177.253906 223.730469 177.253906 L 221.617188 177.253906 C 221.4375 177.253906 221.296875 177.394531 221.296875 177.570312 C 221.296875 177.746094 221.4375 177.886719 221.617188 177.886719 L 223.730469 177.886719 C 223.90625 177.886719 224.050781 177.746094 224.050781 177.570312 Z M 223.789062 179.648438 C 223.789062 179.472656 223.644531 179.328125 223.472656 179.328125 L 221.355469 179.328125 C 221.179688 179.328125 221.035156 179.472656 221.035156 179.648438 C 221.035156 179.824219 221.179688 179.964844 221.355469 179.964844 L 223.472656 179.964844 C 223.644531 179.964844 223.789062 179.824219 223.789062 179.648438 Z M 223.527344 181.726562 C 223.527344 181.546875 223.386719 181.40625 223.210938 181.40625 L 221.09375 181.40625 C 220.917969 181.40625 220.777344 181.546875 220.777344 181.726562 C 220.777344 181.898438 220.917969 182.042969 221.09375 182.042969 L 223.210938 182.042969 C 223.386719 182.042969 223.527344 181.898438 223.527344 181.726562 Z M 223.265625 183.800781 C 223.265625 183.625 223.125 183.484375 222.949219 183.484375 L 220.832031 183.484375 C 220.65625 183.484375 220.515625 183.625 220.515625 183.800781 C 220.515625 183.976562 220.65625 184.121094 220.832031 184.121094 L 222.949219 184.121094 C 223.125 184.121094 223.265625 183.976562 223.265625 183.800781 Z M 225.863281 181.726562 C 225.863281 181.898438 226.007812 182.042969 226.183594 182.042969 L 229.386719 182.042969 C 229.558594 182.042969 229.703125 181.898438 229.703125 181.726562 C 229.703125 181.546875 229.558594 181.40625 229.386719 181.40625 L 226.183594 181.40625 C 226.007812 181.40625 225.863281 181.546875 225.863281 181.726562 Z M 226.125 179.648438 C 226.125 179.824219 226.269531 179.964844 226.441406 179.964844 L 232.679688 179.964844 C 232.855469 179.964844 232.996094 179.824219 232.996094 179.648438 C 232.996094 179.472656 232.855469 179.328125 232.679688 179.328125 L 226.441406 179.328125 C 226.269531 179.328125 226.125 179.472656 226.125 179.648438 Z M 226.386719 177.570312 C 226.386719 177.746094 226.527344 177.886719 226.703125 177.886719 L 229.378906 177.886719 C 229.554688 177.886719 229.695312 177.746094 229.695312 177.570312 C 229.695312 177.394531 229.554688 177.253906 229.378906 177.253906 L 226.703125 177.253906 C 226.527344 177.253906 226.386719 177.394531 226.386719 177.570312 Z M 226.90625 173.417969 C 226.90625 173.589844 227.050781 173.734375 227.226562 173.734375 L 231.085938 173.734375 C 231.261719 173.734375 231.402344 173.589844 231.402344 173.417969 C 231.402344 173.238281 231.261719 173.097656 231.085938 173.097656 L 227.226562 173.097656 C 227.050781 173.097656 226.90625 173.238281 226.90625 173.417969 Z M 227.167969 171.339844 C 227.167969 171.511719 227.3125 171.65625 227.484375 171.65625 L 230.6875 171.65625 C 230.863281 171.65625 231.007812 171.511719 231.007812 171.339844 C 231.007812 171.164062 230.863281 171.019531 230.6875 171.019531 L 227.484375 171.019531 C 227.3125 171.019531 227.167969 171.164062 227.167969 171.339844 Z M 227.429688 169.261719 C 227.429688 169.4375 227.570312 169.578125 227.746094 169.578125 L 233.984375 169.578125 C 234.160156 169.578125 234.300781 169.4375 234.300781 169.261719 C 234.300781 169.085938 234.160156 168.945312 233.984375 168.945312 L 227.746094 168.945312 C 227.570312 168.945312 227.429688 169.085938 227.429688 169.261719 Z M 227.6875 167.183594 C 227.6875 167.359375 227.832031 167.5 228.007812 167.5 L 230.683594 167.5 C 230.859375 167.5 231 167.359375 231 167.183594 C 231 167.007812 230.859375 166.867188 230.683594 166.867188 L 228.007812 166.867188 C 227.832031 166.867188 227.6875 167.007812 227.6875 167.183594 Z M 227.949219 165.105469 C 227.949219 165.28125 228.09375 165.421875 228.269531 165.421875 L 235.988281 165.421875 C 236.160156 165.421875 236.304688 165.28125 236.304688 165.105469 C 236.304688 164.929688 236.160156 164.789062 235.988281 164.789062 L 228.269531 164.789062 C 228.09375 164.789062 227.949219 164.929688 227.949219 165.105469 Z M 237.464844 167.5 C 237.640625 167.5 237.78125 167.359375 237.78125 167.183594 C 237.78125 167.007812 237.640625 166.867188 237.464844 166.867188 L 232.113281 166.867188 C 231.9375 166.867188 231.796875 167.007812 231.796875 167.183594 C 231.796875 167.359375 231.9375 167.5 232.113281 167.5 Z M 234.933594 171.339844 C 234.933594 171.164062 234.792969 171.019531 234.617188 171.019531 L 232.496094 171.019531 C 232.320312 171.019531 232.179688 171.164062 232.179688 171.339844 C 232.179688 171.511719 232.320312 171.65625 232.496094 171.65625 L 234.617188 171.65625 C 234.792969 171.65625 234.933594 171.511719 234.933594 171.339844 Z M 236.160156 177.253906 L 230.808594 177.253906 C 230.636719 177.253906 230.492188 177.394531 230.492188 177.570312 C 230.492188 177.746094 230.636719 177.886719 230.808594 177.886719 L 236.160156 177.886719 C 236.335938 177.886719 236.476562 177.746094 236.476562 177.570312 C 236.476562 177.394531 236.335938 177.253906 236.160156 177.253906 Z M 238.003906 173.734375 C 238.179688 173.734375 238.320312 173.589844 238.320312 173.417969 C 238.320312 173.238281 238.179688 173.097656 238.003906 173.097656 L 232.472656 173.097656 C 232.296875 173.097656 232.15625 173.238281 232.15625 173.417969 C 232.15625 173.589844 232.296875 173.734375 232.472656 173.734375 Z M 244.558594 186.496094 C 244.445312 187.371094 243.644531 188.085938 242.769531 188.085938 L 219.554688 188.085938 C 218.675781 188.085938 218.054688 187.371094 218.164062 186.496094 L 221.234375 162.0625 C 221.34375 161.183594 222.144531 160.472656 223.019531 160.472656 L 246.234375 160.472656 C 247.113281 160.472656 247.734375 161.183594 247.625 162.0625 Z M 161.5625 170.25 L 161.269531 167.8125 C 160.984375 165.445312 161.679688 163.207031 163.019531 161.476562 L 150.011719 161.476562 L 150.011719 170.214844 C 150.011719 170.226562 150.007812 170.238281 150.007812 170.25 Z M 147.347656 161.183594 L 144.199219 161.183594 L 144.199219 168.804688 L 147.347656 168.804688 Z M 142.605469 161.476562 L 142.605469 160.230469 L 139.457031 160.230469 L 139.457031 168.804688 L 142.605469 168.804688 Z M 137.863281 162.328125 L 134.71875 162.328125 L 134.71875 168.804688 L 137.863281 168.804688 Z M 133.121094 166.15625 L 129.976562 166.15625 L 129.976562 168.804688 L 133.121094 168.804688 Z M 128.378906 164.808594 L 125.234375 164.808594 L 125.234375 168.804688 L 128.378906 168.804688 Z M 160.519531 179.660156 L 112.640625 179.660156 C 112.632812 179.554688 112.625 179.449219 112.617188 179.339844 L 160.609375 179.339844 L 161.480469 176.269531 C 161.855469 174.945312 161.960938 173.5625 161.796875 172.195312 L 161.601562 170.570312 L 149.96875 170.570312 C 149.808594 171.277344 149.179688 171.804688 148.425781 171.804688 L 124.988281 171.804688 C 124.230469 171.804688 123.605469 171.277344 123.441406 170.570312 L 112.734375 170.570312 C 112.746094 170.460938 112.757812 170.355469 112.769531 170.25 L 123.402344 170.25 C 123.402344 170.238281 123.398438 170.226562 123.398438 170.214844 L 123.398438 161.476562 L 114.425781 161.476562 C 114.457031 161.371094 114.488281 161.265625 114.519531 161.160156 L 123.398438 161.160156 L 123.398438 157.90625 C 123.398438 157.027344 124.109375 156.316406 124.988281 156.316406 L 148.425781 156.316406 C 149.300781 156.316406 150.011719 157.027344 150.011719 157.90625 L 150.011719 161.160156 L 163.277344 161.160156 C 164.851562 159.3125 167.191406 158.125 169.839844 158.125 C 172.453125 158.125 174.816406 159.296875 176.410156 161.160156 L 184.769531 161.160156 L 184.734375 161.476562 L 176.667969 161.476562 C 177.625 162.714844 178.261719 164.226562 178.429688 165.886719 L 178.515625 166.726562 L 180.324219 170.25 L 183.761719 170.25 L 183.726562 170.570312 L 180.441406 170.570312 C 180.449219 170.769531 180.324219 170.964844 180.113281 171.027344 L 179.40625 171.234375 C 179.199219 171.292969 179.0625 171.492188 179.078125 171.707031 C 179.1875 173.121094 179.503906 178.164062 178.515625 178.699219 C 177.367188 179.320312 171.871094 178.207031 171.871094 178.207031 C 171.765625 178.582031 171.679688 178.960938 171.609375 179.339844 L 182.753906 179.339844 L 182.722656 179.660156 L 171.554688 179.660156 C 171.359375 180.839844 171.3125 182.039062 171.414062 183.226562 C 170.179688 182.808594 168.535156 182.160156 165.976562 181.640625 C 163.519531 181.140625 161.15625 181.703125 159.8125 182.152344 Z M 153.320312 205.261719 C 152.929688 202.792969 152.414062 200.242188 151.769531 197.839844 L 151.773438 197.839844 C 151.761719 197.800781 151.75 197.757812 151.738281 197.71875 C 151.507812 196.867188 151.261719 196.035156 151 195.234375 C 150.121094 192.558594 150.957031 189.835938 152.777344 188.078125 C 152.6875 188.117188 152.597656 188.152344 152.511719 188.195312 C 152.363281 188.269531 152.222656 188.351562 152.082031 188.433594 L 113.851562 188.433594 C 113.875 188.539062 113.894531 188.644531 113.917969 188.75 L 151.59375 188.75 C 148.847656 190.722656 147.960938 194.503906 149.660156 197.523438 L 116.351562 197.523438 C 116.386719 197.628906 116.417969 197.734375 116.457031 197.839844 L 149.835938 197.839844 Z M 183.097656 252.273438 C 184.394531 252.273438 185.691406 252.199219 186.992188 252.066406 L 178.6875 252.066406 C 180.152344 252.199219 181.621094 252.273438 183.097656 252.273438 Z M 165.300781 242.988281 C 164.996094 242.988281 164.695312 242.984375 164.398438 242.976562 L 152.5 242.976562 C 152.671875 243.085938 152.847656 243.1875 153.023438 243.296875 L 210.121094 243.296875 C 210.285156 243.191406 210.449219 243.082031 210.609375 242.976562 L 165.691406 242.976562 C 165.558594 242.980469 165.433594 242.988281 165.300781 242.988281 Z M 152.695312 233.886719 L 140.460938 233.886719 C 140.578125 233.992188 140.695312 234.097656 140.8125 234.203125 L 152.714844 234.203125 C 152.710938 234.097656 152.703125 233.992188 152.695312 233.886719 Z M 179.519531 234.203125 L 221.777344 234.203125 C 221.890625 234.097656 222.003906 233.992188 222.117188 233.886719 L 179.632812 233.886719 C 179.597656 233.992188 179.558594 234.09375 179.519531 234.203125 Z M 152.949219 224.796875 L 131.804688 224.796875 C 131.894531 224.902344 131.984375 225.007812 132.074219 225.113281 L 152.914062 225.113281 C 152.925781 225.007812 152.9375 224.902344 152.949219 224.796875 Z M 154.265625 215.703125 L 125.183594 215.703125 C 125.25 215.8125 125.320312 215.917969 125.386719 216.023438 L 154.265625 216.023438 C 154.265625 215.917969 154.265625 215.8125 154.265625 215.703125 Z M 203.191406 220.265625 C 203.9375 220.386719 204.667969 220.5 205.375 220.609375 L 205.296875 220.484375 L 203.410156 220.082031 Z M 219.789062 224.796875 L 224.570312 224.796875 L 223.058594 223.742188 L 220.355469 224.359375 Z M 183.125 206.613281 L 243.6875 206.613281 C 243.625 206.71875 243.5625 206.828125 243.503906 206.933594 L 183.285156 206.933594 C 185.296875 210.835938 187.140625 214.078125 188.253906 215.703125 L 237.859375 215.703125 C 237.785156 215.8125 237.710938 215.917969 237.636719 216.023438 L 188.476562 216.023438 C 188.765625 216.425781 188.996094 216.6875 189.140625 216.785156 C 190.320312 217.574219 193.238281 218.363281 196.644531 219.070312 L 202.046875 217.03125 C 202.597656 216.820312 203.214844 216.894531 203.707031 217.222656 L 206.375 219.007812 L 207.488281 220.925781 C 209.574219 221.226562 211.285156 221.453125 212.238281 221.574219 L 215.199219 221.460938 L 221.542969 219.269531 C 222.113281 219.070312 222.742188 219.160156 223.234375 219.511719 L 225.90625 221.410156 L 227.746094 224.796875 L 230.8125 224.796875 C 230.722656 224.902344 230.632812 225.007812 230.539062 225.113281 L 227.917969 225.113281 L 227.980469 225.226562 C 228.097656 225.445312 228.007812 225.71875 227.785156 225.820312 C 227.335938 225.789062 226.824219 225.566406 226.40625 225.253906 L 226.515625 225.984375 C 226.566406 226.320312 226.292969 226.617188 225.957031 226.589844 C 225.433594 226.554688 225 226.164062 224.910156 225.644531 L 224.816406 225.113281 L 219.378906 225.113281 L 218.082031 226.121094 C 217.46875 226.59375 216.753906 226.910156 216 227.050781 C 215.511719 227.136719 215.007812 227.125 214.511719 227.054688 L 211.511719 226.640625 L 189.179688 226.484375 C 186.480469 226.371094 184.496094 225.855469 182.984375 225.113281 L 177.289062 225.113281 C 177.273438 225.0625 177.257812 225.011719 177.242188 224.960938 C 177.226562 224.917969 177.214844 224.875 177.203125 224.832031 C 177.199219 224.820312 177.195312 224.808594 177.191406 224.796875 L 177.195312 224.796875 C 176.714844 223.175781 176.371094 221.492188 176.371094 220.007812 C 176.371094 219.160156 176.496094 218.269531 176.703125 217.34375 C 176.753906 217.355469 176.808594 217.363281 176.859375 217.375 L 173.511719 210.898438 C 173.332031 210.9375 173.152344 210.957031 172.96875 210.957031 C 171.304688 210.957031 169.660156 209.390625 168.421875 206.933594 L 120.257812 206.933594 C 120.207031 206.828125 120.15625 206.722656 120.101562 206.613281 L 168.269531 206.613281 C 167.363281 204.699219 166.695312 202.289062 166.441406 199.671875 C 166.234375 197.570312 166.320312 195.605469 166.636719 193.921875 C 166.613281 191.71875 167.207031 189.796875 168.84375 189.03125 C 168.976562 188.96875 169.109375 188.921875 169.242188 188.871094 C 169.710938 188.554688 170.21875 188.386719 170.769531 188.386719 C 170.992188 188.386719 171.214844 188.417969 171.433594 188.46875 C 173.632812 188.519531 175.589844 189.925781 176.515625 192.261719 C 178.371094 196.925781 180.84375 202.171875 183.121094 206.613281 Z M 180.707031 197.839844 L 180.742188 197.523438 L 179.472656 197.523438 C 179.507812 197.628906 179.542969 197.734375 179.578125 197.839844 Z M 181.75 188.433594 L 175.53125 188.433594 C 175.566406 188.496094 175.605469 188.5625 175.636719 188.628906 C 175.65625 188.667969 175.679688 188.710938 175.699219 188.75 L 181.714844 188.75 Z M 256.246094 152.070312 L 118.273438 152.070312 C 118.214844 152.175781 118.160156 152.28125 118.105469 152.386719 L 256.324219 152.386719 C 256.296875 152.28125 256.273438 152.175781 256.246094 152.070312 " fill-opacity="1" fill-rule="nonzero"/></g><g clip-path="url(#clip-3)"><path fill="rgb(22.349548%, 22.749329%, 24.708557%)" d="M 221.683594 216.6875 L 212.738281 216.714844 L 208.269531 216.726562 L 203.796875 216.773438 L 203.796875 216.917969 L 208.269531 216.960938 L 212.738281 216.976562 L 221.683594 217.003906 L 230.625 216.96875 L 235.097656 216.953125 L 239.570312 216.90625 L 239.570312 216.785156 L 235.097656 216.738281 L 230.625 216.71875 Z M 217.933594 146.28125 L 214.703125 146.28125 L 214.703125 146.601562 L 217.933594 146.601562 Z M 219.617188 145.539062 L 219.617188 145.222656 L 217.558594 145.222656 L 217.558594 145.539062 Z M 216.757812 145.222656 L 214.703125 145.222656 L 214.703125 145.539062 L 216.757812 145.539062 Z M 219.617188 144.164062 L 214.703125 144.164062 L 214.703125 144.480469 L 219.617188 144.480469 Z M 221.824219 122.023438 C 222.28125 122.023438 222.652344 121.652344 222.652344 121.191406 C 222.652344 120.734375 222.28125 120.359375 221.824219 120.359375 C 221.363281 120.359375 220.992188 120.734375 220.992188 121.191406 C 220.992188 121.652344 221.363281 122.023438 221.824219 122.023438 Z M 176.683594 122.023438 C 177.144531 122.023438 177.515625 121.652344 177.515625 121.191406 C 177.515625 120.734375 177.144531 120.359375 176.683594 120.359375 C 176.226562 120.359375 175.851562 120.734375 175.851562 121.191406 C 175.851562 121.652344 176.226562 122.023438 176.683594 122.023438 Z M 144.238281 146.972656 L 141.003906 146.972656 L 141.003906 147.289062 L 144.238281 147.289062 Z M 145.921875 146.230469 L 145.921875 145.910156 L 143.863281 145.910156 L 143.863281 146.230469 Z M 143.0625 145.910156 L 141.003906 145.910156 L 141.003906 146.230469 L 143.0625 146.230469 Z M 145.921875 144.851562 L 141.003906 144.851562 L 141.003906 145.171875 L 145.921875 145.171875 Z M 132.554688 122.023438 C 133.011719 122.023438 133.386719 121.652344 133.386719 121.191406 C 133.386719 120.734375 133.011719 120.359375 132.554688 120.359375 C 132.097656 120.359375 131.722656 120.734375 131.722656 121.191406 C 131.722656 121.652344 132.097656 122.023438 132.554688 122.023438 Z M 126.648438 170.332031 L 126.964844 170.332031 L 126.964844 169.992188 L 131.390625 169.992188 L 131.390625 170.332031 L 131.707031 170.332031 L 131.707031 169.992188 L 136.132812 169.992188 L 136.132812 170.332031 L 136.449219 170.332031 L 136.449219 169.992188 L 140.871094 169.992188 L 140.871094 170.332031 L 141.191406 170.332031 L 141.191406 169.992188 L 145.613281 169.992188 L 145.613281 170.332031 L 145.933594 170.332031 L 145.933594 169.992188 L 147.378906 169.992188 L 147.378906 169.675781 L 145.933594 169.675781 L 145.933594 169.335938 L 145.613281 169.335938 L 145.613281 169.675781 L 141.191406 169.675781 L 141.191406 169.335938 L 140.871094 169.335938 L 140.871094 169.675781 L 136.449219 169.675781 L 136.449219 169.335938 L 136.132812 169.335938 L 136.132812 169.675781 L 131.707031 169.675781 L 131.707031 169.335938 L 131.390625 169.335938 L 131.390625 169.675781 L 126.964844 169.675781 L 126.964844 169.335938 L 126.648438 169.335938 L 126.648438 169.675781 L 125.234375 169.675781 L 125.234375 169.992188 L 126.648438 169.992188 Z M 229.734375 158.125 C 229.734375 157.953125 229.589844 157.808594 229.414062 157.808594 L 188.394531 157.808594 C 188.214844 157.808594 188.074219 157.953125 188.074219 158.125 C 188.074219 158.304688 188.214844 158.445312 188.394531 158.445312 L 229.414062 158.445312 C 229.589844 158.445312 229.734375 158.304688 229.734375 158.125 Z M 220.457031 203.347656 L 218.339844 203.347656 C 218.164062 203.347656 218.023438 203.492188 218.023438 203.664062 C 218.023438 203.84375 218.164062 203.984375 218.339844 203.984375 L 220.457031 203.984375 C 220.632812 203.984375 220.773438 203.84375 220.773438 203.664062 C 220.773438 203.492188 220.632812 203.347656 220.457031 203.347656 Z M 221.035156 201.589844 C 221.035156 201.414062 220.890625 201.269531 220.71875 201.269531 L 218.601562 201.269531 C 218.425781 201.269531 218.28125 201.414062 218.28125 201.589844 C 218.28125 201.765625 218.425781 201.90625 218.601562 201.90625 L 220.71875 201.90625 C 220.890625 201.90625 221.035156 201.765625 221.035156 201.589844 Z M 221.554688 197.433594 C 221.554688 197.257812 221.414062 197.113281 221.238281 197.113281 L 219.121094 197.113281 C 218.945312 197.113281 218.804688 197.257812 218.804688 197.433594 C 218.804688 197.609375 218.945312 197.75 219.121094 197.75 L 221.238281 197.75 C 221.414062 197.75 221.554688 197.609375 221.554688 197.433594 Z M 221.816406 195.355469 C 221.816406 195.179688 221.675781 195.039062 221.5 195.039062 L 219.382812 195.039062 C 219.207031 195.039062 219.066406 195.179688 219.066406 195.355469 C 219.066406 195.53125 219.207031 195.675781 219.382812 195.675781 L 221.5 195.675781 C 221.675781 195.675781 221.816406 195.53125 221.816406 195.355469 Z M 222.078125 193.28125 C 222.078125 193.101562 221.933594 192.960938 221.761719 192.960938 L 219.644531 192.960938 C 219.46875 192.960938 219.324219 193.101562 219.324219 193.28125 C 219.324219 193.453125 219.46875 193.597656 219.644531 193.597656 L 221.761719 193.597656 C 221.933594 193.597656 222.078125 193.453125 222.078125 193.28125 Z M 191.972656 192.050781 C 191.9375 192.3125 192.121094 192.523438 192.382812 192.523438 C 192.640625 192.523438 192.878906 192.3125 192.910156 192.050781 C 192.945312 191.792969 192.761719 191.582031 192.5 191.582031 C 192.242188 191.582031 192.003906 191.792969 191.972656 192.050781 Z M 195.800781 162.789062 C 195.769531 163.050781 195.953125 163.257812 196.210938 163.257812 C 196.472656 163.257812 196.707031 163.050781 196.742188 162.789062 C 196.773438 162.53125 196.589844 162.320312 196.328125 162.320312 C 196.070312 162.320312 195.832031 162.53125 195.800781 162.789062 Z M 200.5 173.960938 C 200.324219 173.960938 200.183594 174.101562 200.183594 174.277344 C 200.183594 174.453125 200.324219 174.597656 200.5 174.597656 L 204.390625 174.597656 C 204.566406 174.597656 204.710938 174.453125 204.710938 174.277344 C 204.710938 174.101562 204.566406 173.960938 204.390625 173.960938 Z M 223.265625 183.800781 C 223.265625 183.625 223.125 183.484375 222.949219 183.484375 L 220.832031 183.484375 C 220.65625 183.484375 220.515625 183.625 220.515625 183.800781 C 220.515625 183.976562 220.65625 184.121094 220.832031 184.121094 L 222.949219 184.121094 C 223.125 184.121094 223.265625 183.976562 223.265625 183.800781 Z M 223.527344 181.726562 C 223.527344 181.546875 223.386719 181.40625 223.210938 181.40625 L 221.09375 181.40625 C 220.917969 181.40625 220.777344 181.546875 220.777344 181.726562 C 220.777344 181.898438 220.917969 182.042969 221.09375 182.042969 L 223.210938 182.042969 C 223.386719 182.042969 223.527344 181.898438 223.527344 181.726562 Z M 223.789062 179.648438 C 223.789062 179.472656 223.644531 179.328125 223.472656 179.328125 L 221.355469 179.328125 C 221.179688 179.328125 221.035156 179.472656 221.035156 179.648438 C 221.035156 179.824219 221.179688 179.964844 221.355469 179.964844 L 223.472656 179.964844 C 223.644531 179.964844 223.789062 179.824219 223.789062 179.648438 Z M 224.050781 177.570312 C 224.050781 177.394531 223.90625 177.253906 223.730469 177.253906 L 221.617188 177.253906 C 221.4375 177.253906 221.296875 177.394531 221.296875 177.570312 C 221.296875 177.746094 221.4375 177.886719 221.617188 177.886719 L 223.730469 177.886719 C 223.90625 177.886719 224.050781 177.746094 224.050781 177.570312 Z M 224.570312 173.417969 C 224.570312 173.238281 224.429688 173.097656 224.253906 173.097656 L 222.136719 173.097656 C 221.960938 173.097656 221.820312 173.238281 221.820312 173.417969 C 221.820312 173.589844 221.960938 173.734375 222.136719 173.734375 L 224.253906 173.734375 C 224.429688 173.734375 224.570312 173.589844 224.570312 173.417969 Z M 224.832031 171.339844 C 224.832031 171.164062 224.6875 171.019531 224.515625 171.019531 L 222.398438 171.019531 C 222.222656 171.019531 222.078125 171.164062 222.078125 171.339844 C 222.078125 171.511719 222.222656 171.65625 222.398438 171.65625 L 224.515625 171.65625 C 224.6875 171.65625 224.832031 171.511719 224.832031 171.339844 Z M 225.09375 169.261719 C 225.09375 169.085938 224.949219 168.945312 224.773438 168.945312 L 222.660156 168.945312 C 222.480469 168.945312 222.339844 169.085938 222.339844 169.261719 C 222.339844 169.4375 222.480469 169.578125 222.660156 169.578125 L 224.773438 169.578125 C 224.949219 169.578125 225.09375 169.4375 225.09375 169.261719 Z M 225.351562 167.183594 C 225.351562 167.007812 225.210938 166.867188 225.035156 166.867188 L 222.917969 166.867188 C 222.742188 166.867188 222.601562 167.007812 222.601562 167.183594 C 222.601562 167.359375 222.742188 167.5 222.917969 167.5 L 225.035156 167.5 C 225.210938 167.5 225.351562 167.359375 225.351562 167.183594 Z M 225.613281 165.105469 C 225.613281 164.929688 225.472656 164.789062 225.296875 164.789062 L 223.179688 164.789062 C 223.003906 164.789062 222.863281 164.929688 222.863281 165.105469 C 222.863281 165.28125 223.003906 165.421875 223.179688 165.421875 L 225.296875 165.421875 C 225.472656 165.421875 225.613281 165.28125 225.613281 165.105469 Z M 176.960938 166.597656 L 178.457031 166.523438 C 178.527344 165.652344 178.78125 164.847656 179.191406 164.644531 C 178.753906 164.597656 178.328125 164.609375 178 164.753906 C 177.980469 163.648438 177.542969 163.0625 177.273438 162.371094 C 177.265625 163.160156 177.484375 162.917969 177.398438 163.980469 C 177.355469 164.570312 177.472656 165.171875 177.335938 165.746094 C 177.261719 166.050781 177.121094 166.328125 176.960938 166.597656 Z M 178.773438 166.507812 L 180.019531 166.445312 C 179.921875 165.492188 179.621094 164.910156 179.398438 164.910156 C 179.171875 164.910156 178.859375 165.519531 178.773438 166.507812 Z M 180.042969 166.761719 L 178.753906 166.824219 C 178.75 166.902344 178.75 166.976562 178.75 167.054688 C 178.75 168.363281 179.132812 169.195312 179.398438 169.195312 C 179.664062 169.195312 180.050781 168.363281 180.050781 167.054688 C 180.050781 166.953125 180.046875 166.855469 180.042969 166.761719 Z M 150.101562 179.542969 C 149.757812 177.269531 150.417969 174.863281 151.878906 173.089844 C 152.414062 172.4375 153.074219 171.820312 153.238281 170.992188 C 153.40625 170.140625 153.003906 169.296875 152.820312 168.445312 C 152.46875 166.828125 152.96875 165.046875 154.113281 163.847656 C 154.988281 162.929688 156.203125 162.34375 156.945312 161.3125 C 157.566406 160.445312 157.785156 159.363281 158.210938 158.390625 C 159.402344 155.652344 162.421875 153.828125 165.398438 154.050781 C 166.226562 153.019531 167.824219 152.535156 169.125 152.765625 C 170.425781 152.996094 171.582031 153.734375 172.59375 154.585938 C 175.773438 154.097656 179.773438 157.136719 180.882812 165.019531 C 180.585938 164.933594 180.167969 164.8125 179.730469 164.726562 C 180.144531 165.078125 180.367188 166.09375 180.367188 167.054688 C 180.367188 168.246094 180.027344 169.515625 179.398438 169.515625 C 178.769531 169.515625 178.429688 168.246094 178.429688 167.054688 C 178.429688 166.984375 178.433594 166.914062 178.433594 166.84375 L 177.714844 166.878906 C 177.855469 166.953125 177.957031 167.222656 177.957031 167.550781 C 177.957031 167.933594 177.816406 168.242188 177.640625 168.242188 C 177.464844 168.242188 177.328125 167.933594 177.328125 167.550781 C 177.328125 167.234375 177.421875 166.96875 177.554688 166.886719 L 176.757812 166.925781 C 176.570312 167.222656 176.378906 167.519531 176.25 167.84375 C 175.660156 169.335938 176.496094 171.027344 176.261719 172.617188 C 176.113281 173.613281 175.554688 174.496094 175.253906 175.457031 C 174.828125 176.820312 175.128906 178.707031 175.753906 179.992188 L 171.347656 179.992188 C 171.074219 178.953125 170.71875 178.011719 170.679688 176.9375 C 170.386719 178.058594 170.257812 179.085938 170.160156 180.242188 C 169.617188 178.777344 169.257812 177.351562 169.222656 175.789062 C 169.066406 177.039062 169.015625 178.289062 168.859375 179.542969 Z M 179.875 222.453125 C 180.363281 223.066406 180.898438 223.644531 181.484375 224.171875 C 182.066406 224.703125 182.710938 225.171875 183.425781 225.53125 C 183.785156 225.707031 184.160156 225.84375 184.550781 225.941406 C 184.949219 226.027344 185.332031 226.070312 185.71875 226.125 C 186.492188 226.222656 187.265625 226.320312 188.042969 226.390625 C 189.59375 226.539062 191.148438 226.636719 192.707031 226.664062 C 192.746094 226.664062 192.78125 226.632812 192.78125 226.59375 C 192.785156 226.554688 192.753906 226.523438 192.714844 226.519531 C 191.9375 226.476562 191.164062 226.414062 190.390625 226.34375 C 189.617188 226.273438 188.84375 226.199219 188.070312 226.109375 C 187.300781 226.019531 186.527344 225.929688 185.757812 225.824219 C 185.375 225.769531 184.984375 225.722656 184.625 225.640625 C 184.261719 225.542969 183.90625 225.410156 183.5625 225.246094 C 182.195312 224.570312 181.074219 223.460938 180.082031 222.28125 C 179.585938 221.691406 179.128906 221.066406 178.695312 220.421875 C 178.257812 219.78125 177.847656 219.121094 177.480469 218.4375 L 177.476562 218.4375 C 177.460938 218.410156 177.425781 218.398438 177.398438 218.410156 C 177.367188 218.425781 177.355469 218.464844 177.371094 218.492188 C 178.066406 219.894531 178.898438 221.226562 179.875 222.453125 Z M 169.25 203.234375 C 169.074219 203.128906 168.910156 203.003906 168.753906 202.871094 C 168.597656 202.738281 168.457031 202.582031 168.3125 202.421875 C 168.296875 202.40625 168.269531 202.398438 168.246094 202.40625 C 168.214844 202.417969 168.199219 202.457031 168.210938 202.488281 C 168.375 202.902344 168.699219 203.261719 169.082031 203.503906 C 169.273438 203.625 169.480469 203.722656 169.691406 203.789062 C 169.871094 203.84375 170.054688 203.882812 170.238281 203.90625 C 170.851562 205.300781 171.484375 206.6875 172.125 208.070312 C 172.855469 209.605469 173.589844 211.140625 174.34375 212.667969 C 175.097656 214.191406 175.867188 215.710938 176.675781 217.210938 C 176.691406 217.246094 176.734375 217.257812 176.769531 217.242188 C 176.804688 217.222656 176.820312 217.179688 176.800781 217.144531 C 176.425781 216.382812 176.058594 215.613281 175.695312 214.847656 L 174.59375 212.542969 L 172.410156 207.933594 C 171.683594 206.398438 170.96875 204.855469 170.265625 203.308594 C 169.914062 202.535156 169.570312 201.757812 169.238281 200.976562 C 168.90625 200.195312 168.566406 199.414062 168.320312 198.605469 L 168.320312 198.601562 C 168.308594 198.570312 168.277344 198.554688 168.246094 198.5625 C 168.210938 198.570312 168.195312 198.605469 168.203125 198.636719 C 168.675781 200.285156 169.355469 201.851562 170.019531 203.414062 C 170.058594 203.503906 170.097656 203.589844 170.136719 203.675781 C 170.023438 203.628906 169.90625 203.578125 169.796875 203.527344 C 169.605469 203.4375 169.421875 203.34375 169.25 203.234375 Z M 177.582031 173.042969 C 177.703125 173.121094 177.839844 173.167969 177.976562 173.203125 C 178.117188 173.230469 178.253906 173.242188 178.394531 173.230469 C 178.464844 173.222656 178.53125 173.210938 178.597656 173.199219 C 178.667969 173.179688 178.730469 173.164062 178.796875 173.136719 C 178.816406 173.128906 178.828125 173.109375 178.832031 173.089844 C 178.839844 173.054688 178.816406 173.019531 178.78125 173.015625 C 178.519531 172.976562 178.277344 172.949219 178.046875 172.890625 C 177.933594 172.863281 177.820312 172.828125 177.707031 172.789062 C 177.597656 172.75 177.484375 172.699219 177.378906 172.648438 L 177.367188 172.640625 C 177.34375 172.628906 177.320312 172.628906 177.296875 172.644531 C 177.261719 172.664062 177.253906 172.707031 177.273438 172.742188 C 177.351562 172.878906 177.460938 172.964844 177.582031 173.042969 Z M 243.28125 227.011719 L 237.785156 218.734375 L 237.785156 218.664062 L 233.808594 218.617188 L 229.832031 218.605469 L 221.878906 218.574219 L 213.921875 218.609375 L 209.945312 218.628906 L 205.96875 218.675781 L 205.96875 218.796875 L 206.0625 218.796875 L 206.375 219.007812 L 207.429688 220.820312 L 205.574219 220.554688 C 205.585938 220.550781 205.597656 220.546875 205.609375 220.539062 C 205.679688 220.503906 205.742188 220.449219 205.796875 220.390625 C 205.847656 220.328125 205.894531 220.261719 205.921875 220.1875 C 205.949219 220.109375 205.964844 220.03125 205.957031 219.945312 C 205.953125 219.933594 205.949219 219.917969 205.9375 219.902344 C 205.910156 219.871094 205.859375 219.867188 205.824219 219.894531 L 205.820312 219.898438 C 205.765625 219.945312 205.722656 219.996094 205.675781 220.042969 C 205.632812 220.089844 205.59375 220.136719 205.554688 220.1875 C 205.515625 220.234375 205.476562 220.28125 205.4375 220.332031 C 205.398438 220.386719 205.359375 220.4375 205.320312 220.503906 L 205.316406 220.507812 C 205.316406 220.507812 205.316406 220.507812 205.316406 220.511719 L 205.296875 220.484375 L 203.46875 220.097656 C 203.480469 220.050781 203.492188 220.007812 203.5 219.964844 C 203.53125 219.8125 203.542969 219.65625 203.542969 219.5 C 203.539062 219.34375 203.527344 219.191406 203.492188 219.039062 C 203.460938 218.886719 203.414062 218.734375 203.34375 218.597656 C 203.332031 218.574219 203.304688 218.558594 203.277344 218.558594 C 203.238281 218.554688 203.203125 218.589844 203.203125 218.628906 C 203.199219 218.78125 203.207031 218.925781 203.210938 219.074219 L 203.226562 219.507812 L 203.234375 219.941406 C 203.234375 220.03125 203.238281 220.128906 203.238281 220.222656 L 202.328125 220.09375 C 199.152344 219.617188 195.980469 219.132812 192.835938 218.511719 C 192.050781 218.355469 191.261719 218.195312 190.503906 217.972656 C 190.320312 217.914062 190.128906 217.851562 189.96875 217.769531 C 189.882812 217.722656 189.867188 217.714844 189.804688 217.613281 L 189.644531 217.367188 C 189.433594 217.027344 189.222656 216.6875 189.019531 216.339844 C 188.199219 214.964844 187.394531 213.570312 186.59375 212.179688 L 183.75 207.238281 L 217.671875 207.238281 L 219.539062 214.394531 L 233 214.394531 L 231.132812 207.238281 L 251.570312 207.238281 C 253.566406 207.238281 255.238281 205.738281 255.460938 203.753906 L 260.378906 159.335938 C 260.632812 157.015625 258.820312 154.984375 256.488281 154.984375 L 187.617188 154.984375 C 185.625 154.984375 183.949219 156.484375 183.730469 158.472656 L 179.421875 197.378906 C 179.828125 198.570312 180.164062 199.734375 180.378906 200.800781 L 185.050781 158.617188 C 185.195312 157.304688 186.300781 156.316406 187.617188 156.316406 L 256.488281 156.316406 C 257.234375 156.316406 257.917969 156.621094 258.414062 157.175781 C 258.910156 157.730469 259.140625 158.445312 259.058594 159.1875 L 254.140625 203.609375 C 253.996094 204.917969 252.890625 205.910156 251.570312 205.910156 L 220.457031 205.910156 C 220.492188 205.863281 220.511719 205.804688 220.511719 205.742188 C 220.511719 205.566406 220.371094 205.425781 220.195312 205.425781 L 218.078125 205.425781 C 217.902344 205.425781 217.761719 205.566406 217.761719 205.742188 C 217.761719 205.804688 217.785156 205.863281 217.816406 205.910156 L 182.984375 205.910156 L 181.785156 203.820312 C 181.769531 203.792969 181.730469 203.785156 181.703125 203.800781 C 181.675781 203.816406 181.664062 203.851562 181.679688 203.882812 L 182.800781 205.910156 L 182.761719 205.910156 C 182.992188 206.363281 183.21875 206.804688 183.445312 207.238281 L 183.53125 207.238281 L 184.007812 208.101562 L 186.375 212.304688 C 187.167969 213.699219 187.960938 215.097656 188.777344 216.484375 C 188.976562 216.832031 189.1875 217.179688 189.398438 217.523438 L 189.566406 217.78125 C 189.601562 217.828125 189.605469 217.859375 189.671875 217.921875 C 189.730469 217.980469 189.777344 218.003906 189.828125 218.03125 C 190.027344 218.136719 190.222656 218.195312 190.417969 218.261719 C 191.195312 218.496094 191.984375 218.660156 192.773438 218.824219 C 195.933594 219.433594 199.113281 219.894531 202.289062 220.351562 L 207.0625 221.007812 L 211.84375 221.59375 C 211.882812 221.597656 211.917969 221.570312 211.921875 221.53125 C 211.929688 221.492188 211.898438 221.457031 211.859375 221.453125 L 210.09375 221.199219 L 211.65625 218.847656 L 213.921875 218.859375 L 221.878906 218.894531 L 229.832031 218.867188 L 233.808594 218.851562 L 235.730469 218.828125 L 241.164062 227.011719 L 239.152344 227.011719 L 236.265625 223.742188 L 234.9375 224.621094 L 237.402344 227.011719 L 229.414062 227.011719 L 236.675781 222.394531 L 226.441406 222.394531 L 227.980469 225.226562 C 228.097656 225.445312 228.007812 225.71875 227.785156 225.820312 C 227.371094 225.789062 226.898438 225.59375 226.5 225.316406 C 226.5 225.308594 226.503906 225.300781 226.5 225.292969 C 226.328125 224.886719 226.324219 224.441406 226.269531 223.984375 C 226.246094 223.753906 226.195312 223.515625 226.105469 223.289062 C 226.015625 223.058594 225.886719 222.851562 225.734375 222.664062 C 225.425781 222.296875 225.054688 222.007812 224.679688 221.753906 C 224.304688 221.496094 223.925781 221.253906 223.589844 220.957031 C 223.570312 220.9375 223.535156 220.9375 223.511719 220.957031 C 223.484375 220.976562 223.480469 221.015625 223.503906 221.039062 C 223.796875 221.402344 224.167969 221.6875 224.519531 221.96875 C 224.875 222.25 225.226562 222.523438 225.488281 222.863281 C 225.625 223.03125 225.742188 223.210938 225.824219 223.402344 C 225.90625 223.59375 225.949219 223.808594 225.992188 224.023438 C 226.058594 224.378906 226.097656 224.769531 226.253906 225.125 C 226.058594 224.957031 225.890625 224.773438 225.773438 224.582031 L 224.761719 222.886719 L 222.964844 222.453125 C 222.960938 222.449219 222.957031 222.445312 222.953125 222.441406 C 222.9375 222.421875 222.910156 222.410156 222.886719 222.421875 C 222.878906 222.421875 222.878906 222.429688 222.875 222.429688 L 222.847656 222.425781 L 220.320312 224.386719 C 220.320312 224.371094 220.324219 224.359375 220.324219 224.34375 C 220.339844 224.210938 220.332031 224.078125 220.3125 223.945312 C 220.289062 223.816406 220.253906 223.6875 220.199219 223.5625 C 220.144531 223.445312 220.078125 223.328125 219.988281 223.226562 C 219.972656 223.210938 219.945312 223.199219 219.921875 223.203125 C 219.878906 223.210938 219.851562 223.25 219.859375 223.292969 C 219.878906 223.417969 219.910156 223.535156 219.933594 223.652344 C 219.953125 223.769531 219.980469 223.882812 220 224 C 220.023438 224.117188 220.039062 224.230469 220.058594 224.351562 C 220.070312 224.417969 220.078125 224.492188 220.089844 224.5625 L 218.082031 226.121094 C 217.507812 226.5625 216.847656 226.863281 216.152344 227.011719 L 214.195312 227.011719 L 211.722656 226.671875 C 211.871094 226.535156 212.007812 226.378906 212.105469 226.191406 C 212.226562 225.964844 212.285156 225.695312 212.246094 225.445312 C 212.242188 225.414062 212.21875 225.386719 212.183594 225.382812 C 212.144531 225.378906 212.109375 225.40625 212.101562 225.445312 C 212.070312 225.667969 211.992188 225.871094 211.867188 226.050781 C 211.816406 226.121094 211.757812 226.191406 211.695312 226.257812 C 211.691406 226.109375 211.671875 225.96875 211.636719 225.824219 C 211.570312 225.550781 211.457031 225.292969 211.285156 225.074219 C 211.269531 225.054688 211.242188 225.046875 211.214844 225.054688 C 211.183594 225.066406 211.167969 225.101562 211.179688 225.136719 C 211.273438 225.378906 211.339844 225.625 211.367188 225.875 C 211.394531 226.125 211.394531 226.375 211.355469 226.617188 C 211.355469 226.625 211.359375 226.632812 211.359375 226.640625 L 194.300781 226.519531 L 193.554688 227.011719 L 177.929688 227.011719 C 177.96875 227.121094 178.011719 227.226562 178.050781 227.332031 L 260.402344 227.332031 L 260.402344 227.011719 Z M 130.824219 227.011719 L 130.824219 227.332031 L 166.328125 227.332031 C 168.480469 227.332031 169.097656 227.011719 169.097656 227.011719 C 169.378906 226.9375 169.648438 226.835938 169.902344 226.710938 C 171.722656 225.816406 172.820312 223.742188 172.300781 221.597656 L 166.226562 196.566406 C 165.734375 194.542969 163.925781 193.121094 161.851562 193.121094 L 127.902344 193.121094 C 124.988281 193.121094 122.839844 195.855469 123.527344 198.695312 L 129.605469 223.726562 C 130 225.355469 131.246094 226.589844 132.800781 227.011719 Z M 180.117188 231.976562 C 180.117188 231.976562 180.109375 232.035156 180.089844 232.136719 L 180.09375 232.136719 C 179.871094 233.464844 177.847656 242.988281 165.300781 242.988281 C 160.710938 242.988281 157.390625 242.226562 155.542969 241.65625 C 156.195312 245.414062 159.472656 248.273438 163.414062 248.273438 L 187.550781 248.273438 C 193.523438 248.273438 199.355469 245.78125 199.355469 245.78125 L 197.480469 256.90625 L 209.785156 256.90625 C 209.785156 256.90625 211.210938 245.78125 211.824219 238.320312 C 212.183594 233.949219 208.96875 232.546875 206.242188 232.136719 L 228.378906 232.136719 L 226.941406 244.527344 L 231.492188 245.28125 L 233.019531 232.136719 L 249.398438 232.136719 L 251.304688 248.570312 L 256.035156 249.355469 L 254.039062 232.136719 L 260.402344 232.136719 L 260.402344 231.816406 L 180.035156 231.816406 C 180.085938 231.921875 180.117188 231.976562 180.117188 231.976562 Z M 152.628906 231.816406 L 130.824219 231.816406 L 130.824219 232.136719 L 141.3125 232.136719 C 141.304688 232.183594 141.308594 232.234375 141.292969 232.28125 L 141.253906 232.601562 C 141.21875 232.8125 141.207031 233.03125 141.1875 233.246094 L 141.152344 233.890625 L 141.132812 234.214844 L 141.125 234.378906 C 141.128906 234.433594 141.089844 234.484375 141.191406 234.546875 C 141.308594 234.507812 141.28125 234.449219 141.296875 234.398438 L 141.328125 234.238281 L 141.382812 233.917969 L 141.496094 233.28125 C 141.523438 233.066406 141.5625 232.855469 141.582031 232.640625 L 141.613281 232.316406 C 141.609375 232.257812 141.636719 232.199219 141.625 232.136719 L 152.632812 232.136719 C 152.632812 232.03125 152.628906 231.925781 152.628906 231.816406 Z M 206.570312 162.789062 C 206.570312 162.613281 206.425781 162.46875 206.253906 162.46875 L 201.523438 162.46875 C 201.347656 162.46875 201.207031 162.613281 201.207031 162.789062 C 201.207031 162.964844 201.347656 163.105469 201.523438 163.105469 L 206.253906 163.105469 C 206.425781 163.105469 206.570312 162.964844 206.570312 162.789062 Z M 194.023438 162.789062 C 193.992188 163.050781 194.175781 163.257812 194.433594 163.257812 C 194.691406 163.257812 194.929688 163.050781 194.960938 162.789062 C 194.996094 162.53125 194.8125 162.320312 194.550781 162.320312 C 194.292969 162.320312 194.054688 162.53125 194.023438 162.789062 Z M 192.65625 163.257812 C 192.398438 163.257812 192.210938 163.050781 192.246094 162.789062 C 192.277344 162.53125 192.515625 162.320312 192.773438 162.320312 C 193.03125 162.320312 193.214844 162.53125 193.183594 162.789062 C 193.152344 163.050781 192.914062 163.257812 192.65625 163.257812 " fill-opacity="1" fill-rule="nonzero"/></g><g clip-path="url(#clip-4)"><path fill="rgb(46.669006%, 48.239136%, 52.159119%)" d="M 237.125 214.394531 L 234.566406 214.394531 L 232.699219 207.238281 L 231.132812 207.238281 L 233 214.394531 L 206.242188 214.394531 C 204.890625 214.394531 203.796875 215.492188 203.796875 216.84375 L 239.570312 216.84375 C 239.570312 215.492188 238.476562 214.394531 237.125 214.394531 Z M 150.59375 214.226562 L 145.320312 214.226562 C 144.984375 214.226562 144.699219 214.480469 144.660156 214.816406 L 140.390625 251.847656 C 140.347656 252.242188 140.65625 252.589844 141.050781 252.589844 L 146.324219 252.589844 C 146.664062 252.589844 146.945312 252.335938 146.988281 252 L 151.253906 214.96875 C 151.300781 214.574219 150.992188 214.226562 150.59375 214.226562 Z M 229.171875 227.164062 L 231.3125 227.164062 L 236.183594 223.957031 L 239.011719 227.164062 L 240.59375 227.164062 L 236.675781 222.394531 Z M 258.585938 154.984375 L 256.488281 154.984375 C 258.820312 154.984375 260.632812 157.015625 260.378906 159.335938 L 255.460938 203.753906 C 255.238281 205.738281 253.566406 207.238281 251.570312 207.238281 L 253.667969 207.238281 C 255.660156 207.238281 257.335938 205.738281 257.554688 203.753906 L 262.472656 159.335938 C 262.730469 157.015625 260.914062 154.984375 258.585938 154.984375 Z M 206.570312 162.789062 C 206.570312 162.613281 206.425781 162.46875 206.253906 162.46875 L 201.523438 162.46875 C 201.347656 162.46875 201.207031 162.613281 201.207031 162.789062 C 201.207031 162.964844 201.347656 163.105469 201.523438 163.105469 L 206.253906 163.105469 C 206.425781 163.105469 206.570312 162.964844 206.570312 162.789062 Z M 194.550781 162.320312 C 194.292969 162.320312 194.054688 162.53125 194.023438 162.789062 C 193.992188 163.050781 194.175781 163.257812 194.433594 163.257812 C 194.691406 163.257812 194.929688 163.050781 194.960938 162.789062 C 194.996094 162.53125 194.8125 162.320312 194.550781 162.320312 Z M 192.773438 162.320312 C 192.515625 162.320312 192.277344 162.53125 192.246094 162.789062 C 192.210938 163.050781 192.398438 163.257812 192.65625 163.257812 C 192.914062 163.257812 193.152344 163.050781 193.183594 162.789062 C 193.214844 162.53125 193.03125 162.320312 192.773438 162.320312 Z M 196.742188 162.789062 C 196.707031 163.050781 196.472656 163.257812 196.210938 163.257812 C 195.953125 163.257812 195.769531 163.050781 195.800781 162.789062 C 195.832031 162.53125 196.070312 162.320312 196.328125 162.320312 C 196.589844 162.320312 196.773438 162.53125 196.742188 162.789062 " fill-opacity="1" fill-rule="nonzero"/></g></svg>